<svg xmlns="http://www.w3.org/2000/svg" aria-hidden="true" style="position:absolute;width:0;height:0;overflow:hidden">
    <defs>
        <symbol id="icon-antenna" viewBox="0 0 32 32">
            <path fill="#212121" d="m30.773 22.098-8.443-8.505.937-4.615c.225.09.485.144.758.146h.007a2.159 2.159 0 1 0-2.133-2.184v.026c0 .259.046.508.13.738l-.005-.015-4.96.605L8.973.161a.53.53 0 0 0-.376-.16.531.531 0 0 0-.373.155L6.711 1.66a.534.534 0 0 0 0 .754l.814.826a14.943 14.943 0 0 0 2.519 17.663.513.513 0 0 0 .146.098 2.986 2.986 0 0 0-.052.546v6.188h-6.4a2.67 2.67 0 0 0-2.667 2.667v1.067c0 .295.239.533.533.533h24.533a.533.533 0 0 0 .533-.533v-1.067a2.67 2.67 0 0 0-2.667-2.667h-6.4v-2.742a14.64 14.64 0 0 0 3.047.32h.002a14.784 14.784 0 0 0 7.117-1.822l-.077.039.818.823a.534.534 0 0 0 .377.16.531.531 0 0 0 .373-.155l1.513-1.504a.534.534 0 0 0 0-.754zM23.28 6.233a1.066 1.066 0 1 1 .752 1.822h-.003a1.067 1.067 0 0 1-.747-1.823h-.002zm-1.256 3.505-.598 2.946-1.175-1.182 1.774-1.763zm-.605-.902-1.92 1.909-1.485-1.493 3.405-.415zM24.004 28.8a1.6 1.6 0 0 1 1.6 1.6v.533H2.137V30.4a1.6 1.6 0 0 1 1.6-1.6h20.267zm-7.467-2.133v1.067h-5.333v-1.067h5.333zM11.204 25.6v-4.053c0-1.294 1.196-2.347 2.667-2.347s2.667 1.053 2.667 2.347V25.6h-5.333zm6.4-1.696v-2.357c0-1.882-1.675-3.413-3.733-3.413h-.058c-1.353 0-2.54.707-3.213 1.771l-.009.016A13.87 13.87 0 0 1 8.312 4.034l18.602 18.708c-1.823.947-3.98 1.502-6.266 1.502-1.079 0-2.128-.124-3.136-.357l.093.018zm11.289-.684L7.836 2.039l.755-.752 7.935 7.98c.004 0 .006.007.01.01l13.115 13.191-.757.752z" style="fill:var(--color1, #212121)"/>
            <path fill="#2196f3" d="M13.876 20.267h-.005a1.6 1.6 0 1 0-.004 3.2h.005a1.6 1.6 0 1 0 .004-3.2zm.373 1.978a.53.53 0 0 1-.376.155h-.002a.534.534 0 0 1-.001-1.067.532.532 0 0 1 .373.911h.005z" style="fill:var(--color2, #2196f3)"/>
        </symbol>
        <symbol id="icon-astronaut" viewBox="0 0 32 32">
            <path fill="#2196f3" d="M31.974 4.524a.535.535 0 0 0-.427-.362h-.003l-1.91-.278-.855-1.731c-.179-.365-.777-.365-.956 0l-.855 1.731-1.91.278a.535.535 0 0 0-.43.359l-.001.004a.534.534 0 0 0 .135.547l1.383 1.348-.326 1.903a.536.536 0 0 0 .777.561l-.003.001 1.709-.899 1.709.899a.536.536 0 0 0 .775-.566v.003l-.326-1.903 1.383-1.348a.535.535 0 0 0 .134-.55l.001.004zm-2.463 1.327a.533.533 0 0 0-.153.476v-.003l.191 1.114-1-.526a.52.52 0 0 0-.248-.061H28.3c-.085 0-.17.02-.249.061l-1.001.526.191-1.114a.533.533 0 0 0-.153-.472l-.81-.789 1.119-.163a.533.533 0 0 0 .4-.289l.001-.003.5-1.013.5 1.013a.535.535 0 0 0 .402.292l1.119.163-.809.789zm-3.377 14.671h-1.067v1.067h1.067v-1.067zm0 2.134h-1.067v1.067h1.067v-1.067zm1.066-1.067h-1.067v1.067H27.2v-1.067zm-2.133 0H24v1.067h1.067v-1.067zm-2.667 4.8h-1.067v1.067H22.4v-1.067zm0 2.133h-1.067v1.067H22.4v-1.067zm1.067-1.066H22.4v1.067h1.067v-1.067zm-2.134 0h-1.067v1.067h1.067v-1.067zM16 24.256h-1.067v1.067H16v-1.067zm0 2.133h-1.067v1.067H16v-1.067zm1.067-1.067H16v1.067h1.067v-1.067zm-2.134 0h-1.067v1.067h1.067v-1.067zm-9.066-19.2H4.8v1.067h1.067V6.122zm0 2.133H4.8v1.067h1.067V8.255z" style="fill:var(--color2, #2196f3)"/>
            <path fill="#2196f3" d="M6.933 7.189H5.866v1.067h1.067V7.189zm-2.133 0H3.733v1.067H4.8V7.189z" style="fill:var(--color2, #2196f3)"/>
            <path fill="#212121" d="M24.715 14.159a1.775 1.775 0 0 0-1.188-.705 1.778 1.778 0 0 0-1.34.352l-1.252.96-1.898 1.417-1.358-.541c2.421-1.086 4.114-3.508 4.114-6.32 0-3.823-3.123-6.933-6.961-6.933s-6.961 3.11-6.961 6.933a6.86 6.86 0 0 0 1.12 3.758l-2.769-.024c-.009 0-.015.004-.023.005a.555.555 0 0 0-.159.032l.004-.001-.038.013c-.006.003-.013.003-.019.006l-3.233 1.596-.001.001-1.893.911a.429.429 0 0 0-.064.036l.001-.001a1.779 1.779 0 0 0-.598 2.295c.22.429.595.745 1.056.889a1.776 1.776 0 0 0 1.378-.128l1.388-.738 2.264-1.169 1.357-.008L2.2 22.211l-.002.001-1.339 1.333c-.316.315-.49.732-.49 1.178s.174.863.49 1.179c.325.323.752.485 1.179.485s.854-.162 1.18-.485l1.314-1.309 1.741-1.3.901.897-1.762 1.754-.002.001-1.339 1.333c-.316.315-.49.732-.49 1.178s.174.863.49 1.179c.325.323.753.485 1.18.485s.855-.162 1.18-.485l3.482-3.467.001-.002 1.01-1-.004-.004c.006-.006.015-.009.022-.015l5.166-5.658 3.471.494a.558.558 0 0 0 .073.005h.002a.52.52 0 0 0 .187-.038c.018-.006.033-.015.05-.023.019-.01.039-.015.058-.027l3.213-2.133c.012-.008.018-.021.029-.029.013-.01.029-.014.041-.026l1.271-1.191c.662-.62.753-1.635.212-2.362zM2.13 17.77a.714.714 0 0 1-.558.052.717.717 0 0 1-.213-1.26l1.314-.632.449 1.312-.992.528zm3.498-1.828-1.548.8-.439-1.283 2.027-1.001-.04 1.484zm15.099-6.62a5.79 5.79 0 0 1-.599 2.559l-4.181-1.899a1.863 1.863 0 0 0-.788-1.388l1.464-4.86c2.378.756 4.105 2.974 4.105 5.588zm-11.789 0c0-3.235 2.644-5.867 5.894-5.867.253 0 .5.021.745.052l-1.432 4.754c-.019-.001-.037-.006-.057-.006-1.033 0-1.873.837-1.873 1.867s.84 1.867 1.873 1.867c.694 0 1.294-.383 1.618-.945l3.862 1.755a5.894 5.894 0 0 1-4.737 2.39c-3.25 0-5.894-2.632-5.894-5.867zm5.956.8c0 .441-.362.8-.806.8s-.806-.359-.806-.8c0-.441.362-.8.806-.8s.806.359.806.8zM2.465 25.146a.608.608 0 0 1-.854.001.592.592 0 0 1 0-.844l.962-.958.851.848-.959.955zm3.214 3.734a.608.608 0 0 1-.855.001.592.592 0 0 1 0-.844l.963-.959.852.848-.96.955zm3.481-3.469-.002.001-1.765 1.76-.852-.848 1.763-1.756.002-.001c.04-.04.065-.088.09-.135.007-.014.02-.026.026-.04.017-.041.019-.085.026-.129.003-.025.014-.047.014-.073 0-.036-.013-.07-.02-.106-.006-.032-.006-.065-.019-.095a.55.55 0 0 0-.091-.138c-.01-.012-.014-.027-.025-.038h-.001l-.001-.002-1.607-1.6c-.017-.017-.039-.024-.058-.038a.507.507 0 0 0-.087-.058.515.515 0 0 0-.093-.033.507.507 0 0 0-.103-.02.5.5 0 0 0-.095.005.53.53 0 0 0-.104.02.477.477 0 0 0-.094.045c-.02.011-.042.015-.061.029L4.23 23.485l-.901-.897 2.399-2.386 4.361 4.289-.928.919zm6.819-7.017c-.015-.002-.03.004-.045.003l-.026-.001a.562.562 0 0 0-.092.008h.003a.536.536 0 0 0-.088.021.541.541 0 0 0-.181.109c-.013.011-.028.017-.04.029l-4.698 5.146-4.328-4.257 2.833-2.818a.534.534 0 0 0-.379-.911v-.001l-2.219.013.028-1.607 3.104.027a6.947 6.947 0 0 0 4.981 2.101c.437 0 .864-.045 1.279-.123.04.032.079.065.13.085l2.41.96.331 1.644-3.003-.427zm4.041.178-.313-1.558 1.446-1.08.947 1.257-2.08 1.381zm3.754-2.831-.838.785-.931-1.236.831-.637a.735.735 0 0 1 .543-.143.718.718 0 0 1 .48.284.713.713 0 0 1-.085.947z" style="fill:var(--color1, #212121)"/>
            <path fill="#212121" d="m13.602 18.544-2.143-2.133a.534.534 0 0 0-.753 0l-2.142 2.133a.531.531 0 0 0 0 .756l2.142 2.133a.536.536 0 0 0 .753 0l2.143-2.133a.535.535 0 0 0 0-.756zm-2.519 1.759-1.387-1.381 1.387-1.381 1.387 1.381-1.387 1.381zm6.081-15.232-.258 1.036c.071.018 1.738.452 1.738 2.149h1.067c0-2.017-1.666-2.965-2.547-3.185zm2.547 4.251h-1.067v1.067h1.067V9.322z" style="fill:var(--color1, #212121)"/>
        </symbol>
        <symbol id="icon-clock" viewBox="0 0 32 32">
            <path fill="#212121" d="M31.297 15.301C31.295 6.849 24.442-.002 15.989 0S.686 6.855.688 15.308a15.304 15.304 0 0 0 10.649 14.576.63.63 0 0 0 .187.029.677.677 0 0 0 .346-.095l-.003.002a.64.64 0 0 0 .282-.352l.001-.005 3.865-12.25a1.912 1.912 0 1 0-.851-3.63l.011-.005-5.106-5.107a.637.637 0 0 0-.902.902l5.103 5.109a1.876 1.876 0 0 0 .536 2.309l-3.683 11.673C3.845 25.783.119 17.71 2.8 10.432S13.554-.572 20.832 2.109c7.278 2.681 11.004 10.754 8.323 18.032-1.345 3.581-4.003 6.406-7.374 7.938l-.088.036-.398-1.874a.638.638 0 0 0-1.049-.343l.001-.001-3.837 3.426a.637.637 0 0 0 .231 1.084l4.899 1.563a.638.638 0 0 0 .818-.743l.001.004-.391-1.839a15.255 15.255 0 0 0 9.329-14.089zm-15.305-.637a.638.638 0 1 1 0 1.277.638.638 0 0 1 0-1.277zm2.101 14.864 2.184-1.948.603 2.84-2.787-.892z" style="fill:var(--color1, #212121)"/>
            <path fill="#2196f3" d="M15.354 3.185V4.46a.638.638 0 1 0 1.276 0V3.185a.638.638 0 0 0-1.276 0zM3.876 14.664a.638.638 0 0 0 0 1.276h1.275a.638.638 0 1 0 0-1.276H3.876zm24.232 1.275a.638.638 0 1 0 0-1.276h-1.275a.638.638 0 0 0 0 1.276h1.275z" style="fill:var(--color2, #2196f3)"/>
        </symbol>
        <symbol id="icon-diagram" viewBox="0 0 32 32">
            <path fill="#2196f3" d="M14.926 14.965h1.066v4.798h-1.066v-4.797zm4.264 2.132h1.066v2.665H19.19v-2.665zm-8.529 1.599h1.066v1.066h-1.066v-1.066zm-3.198-.533h1.066v1.599H7.463v-1.599z" style="fill:var(--color2, #2196f3)"/>
            <path fill="#212121" d="M1.599 28.291h25.587a1.6 1.6 0 0 0 1.599-1.599V24.56a1.6 1.6 0 0 0-1.599-1.599h-.533V9.668L29.681 6.8a1.608 1.608 0 1 0-.746-.763L26.654 8.2V6.97a1.6 1.6 0 0 0-1.599-1.599H3.733A1.6 1.6 0 0 0 2.134 6.97v15.992h-.533a1.6 1.6 0 0 0-1.599 1.599v2.132a1.6 1.6 0 0 0 1.599 1.599zM30.384 4.837a.533.533 0 1 1 0 1.067.533.533 0 0 1 0-1.067zM3.198 6.969c0-.294.239-.533.533-.533h21.322c.294 0 .533.239.533.533v2.239l-1.066 1.013V8.035a.533.533 0 0 0-.533-.533H4.797a.533.533 0 0 0-.533.533v13.326c0 .294.239.533.533.533h19.19a.533.533 0 0 0 .533-.533v-9.674l1.066-1.01v12.284H3.198V6.969zm4.798 6.93a1.598 1.598 0 1 0 1.107 2.749l1.853.93a.534.534 0 0 0 .636-.122v-.001l3.939-4.431 3.872 2.901a.532.532 0 0 0 .687-.04l3.365-3.188v8.131H5.331V8.568h18.124v2.66L19.684 14.8l-3.904-2.927a.533.533 0 0 0-.718.072l-3.993 4.493-1.493-.746c.01-.056.017-.123.02-.19v-.003A1.6 1.6 0 0 0 7.997 13.9zm.533 1.599a.533.533 0 1 1-1.067 0 .533.533 0 0 1 1.067 0zm3.198 8.529h5.331v.533a.533.533 0 0 1-.533.533h-4.264a.533.533 0 0 1-.533-.533v-.533zm-10.661.533c0-.294.239-.533.533-.533h9.062v.533a1.6 1.6 0 0 0 1.599 1.599h4.264a1.6 1.6 0 0 0 1.599-1.599v-.533h9.062c.294 0 .533.239.533.533v2.132a.533.533 0 0 1-.533.533H1.598a.533.533 0 0 1-.533-.533V24.56z" style="fill:var(--color1, #212121)"/>
        </symbol>
        <symbol id="icon-envelope" viewBox="0 0 43 32">
            <path fill="#2196f3" d="M38.667 0H4C1.795 0 0 1.794 0 4v24c0 2.206 1.794 4 4 4h34.667c2.206 0 4-1.794 4-4V4c0-2.205-1.794-4-4-4zm0 2.667c.184 0 .36.038.52.107l-.009-.003-17.844 15.466L3.489 2.771c.151-.065.327-.103.511-.103h34.667zm0 26.666H4A1.333 1.333 0 0 1 2.667 28V5.587L20.46 21.008c.232.202.538.325.872.325h.003c.334 0 .64-.123.874-.327l-.002.001L40 5.586v22.413c0 .736-.598 1.333-1.333 1.333z" style="fill:var(--color2, #2196f3)"/>
        </symbol>
        <symbol id="icon-facebook" viewBox="0 0 32 32">
            <path fill="#afb1b8" d="M21.329 5.313h2.921V.225C23.746.156 22.013 0 19.994 0c-4.212 0-7.097 2.649-7.097 7.519V12H8.249v5.688h4.648V32h5.699V17.689h4.46l.708-5.688h-5.169V8.082c.001-1.644.444-2.769 2.735-2.769z" style="fill:var(--color3, #afb1b8)"/>
        </symbol>
        <symbol id="icon-instagram" viewBox="0 0 32 32">
            <path fill="#afb1b8" d="M31.969 9.408c-.075-1.7-.35-2.869-.744-3.882a7.806 7.806 0 0 0-1.851-2.838A7.89 7.89 0 0 0 26.596.862l-.054-.018C25.523.45 24.36.175 22.66.1 20.947.019 20.403 0 16.059 0s-4.888.019-6.595.094c-1.7.075-2.869.35-3.882.744a7.803 7.803 0 0 0-2.838 1.85A7.89 7.89 0 0 0 .918 5.466L.9 5.52C.506 6.539.231 7.701.156 9.402c-.081 1.713-.1 2.257-.1 6.602s.019 4.888.094 6.595c.075 1.7.35 2.869.744 3.882a7.941 7.941 0 0 0 1.849 2.837l.001.001a7.89 7.89 0 0 0 2.778 1.826l.054.018c1.019.394 2.182.669 3.882.744 1.706.075 2.25.094 6.595.094s4.888-.019 6.595-.094c1.7-.075 2.869-.35 3.882-.744a8.233 8.233 0 0 0 4.663-4.627l.019-.055c.394-1.019.669-2.182.744-3.882.075-1.707.094-2.251.094-6.595s-.006-4.888-.081-6.595zm-2.882 13.065c-.069 1.563-.331 2.407-.55 2.969a5.342 5.342 0 0 1-3.002 3.026l-.036.013c-.563.219-1.413.481-2.969.55-1.688.075-2.194.094-6.464.094s-4.782-.019-6.464-.094c-1.563-.069-2.407-.331-2.969-.55a4.926 4.926 0 0 1-1.838-1.194 4.98 4.98 0 0 1-1.183-1.804l-.011-.034c-.219-.563-.481-1.413-.55-2.969-.075-1.688-.094-2.194-.094-6.464s.019-4.782.094-6.464c.069-1.563.331-2.407.55-2.969a4.868 4.868 0 0 1 1.2-1.838 4.98 4.98 0 0 1 1.804-1.183l.034-.011c.563-.219 1.413-.481 2.969-.55 1.688-.075 2.194-.094 6.464-.094 4.276 0 4.782.019 6.464.094 1.563.069 2.407.331 2.969.55a4.914 4.914 0 0 1 1.838 1.194 4.974 4.974 0 0 1 1.194 1.838c.219.563.481 1.413.55 2.969.075 1.688.094 2.194.094 6.464s-.019 4.77-.094 6.458z" style="fill:var(--color3, #afb1b8)"/>
            <path fill="#afb1b8" d="M16.059 7.783c-4.538 0-8.22 3.682-8.22 8.22s3.682 8.22 8.22 8.22c4.539 0 8.22-3.682 8.22-8.22s-3.682-8.22-8.22-8.22zm0 13.552a5.333 5.333 0 0 1 0-10.664 5.333 5.333 0 0 1 0 10.664zM26.524 7.458a1.919 1.919 0 1 1-3.838 0 1.919 1.919 0 0 1 3.838 0z" style="fill:var(--color3, #afb1b8)"/>
        </symbol>
        <symbol id="icon-linkedin" viewBox="0 0 32 32">
            <path fill="#afb1b8" d="M31.992 32v-.001H32V20.263c0-5.741-1.236-10.164-7.948-10.164-3.227 0-5.392 1.771-6.276 3.449h-.093v-2.913h-6.364v21.364h6.627V21.42c0-2.785.528-5.479 3.977-5.479 3.399 0 3.449 3.179 3.449 5.657v10.401h6.62zM.528 10.636h6.635V32H.528V10.636zM3.843 0C1.722 0 0 1.721 0 3.843s1.721 3.879 3.843 3.879c2.121 0 3.843-1.757 3.843-3.879A3.846 3.846 0 0 0 3.843 0z" style="fill:var(--color3, #afb1b8)"/>
        </symbol>
        <symbol id="icon-logo-1" viewBox="0 0 57 32">
            <path fill="#afb1b8" d="m20.267 3.733 3.738 3.538-6.938-.004v17.166H35.2v-6.564l3.733 3.534V3.732H20.266zm14.769 13.722L24.439 7.423h10.597v10.032zm-3.29 4.468h-11.81V10.378h.835v10.764h10.975v.782zm-9.021 4.797-.436.898-.436-.898h-.366l.637 1.198v.698h.331v-.698l.635-1.198h-.365zm.548 1.895.154-.441h.734l.155.441h.344l-.717-1.896h-.296l-.716 1.896h.342zm.521-1.493.275.786h-.549l.275-.786zm1.737.741a.426.426 0 0 0-.072.238v.003c0 .16.056.29.168.389s.263.148.451.148.349-.051.484-.152l.107.126h.367l-.279-.329a.95.95 0 0 0 .164-.574h-.275a.758.758 0 0 1-.079.348l-.366-.432.129-.094a.72.72 0 0 0 .197-.198.412.412 0 0 0 .06-.216v-.003c0-.12-.044-.22-.133-.301s-.201-.122-.339-.122c-.153 0-.274.043-.365.13s-.135.203-.135.352c0 .061.014.124.043.189s.081.144.155.237a1.12 1.12 0 0 0-.283.262zm.855.419a.485.485 0 0 1-.299.107c-.095 0-.17-.027-.227-.082s-.085-.126-.085-.214c0-.102.052-.192.156-.271l.04-.029.414.488zm-.34-.84c-.089-.11-.134-.202-.134-.275 0-.063.018-.116.055-.158s.085-.063.147-.063c.057 0 .105.018.142.053s.056.077.056.126a.235.235 0 0 1-.081.184l-.04.033-.145.099zm3.086 1.03a.689.689 0 0 0 .224-.474h-.328c-.017.135-.059.232-.124.29s-.162.087-.292.087c-.142 0-.249-.054-.323-.161s-.109-.264-.109-.469v-.168c.002-.202.041-.355.117-.46s.188-.158.331-.158c.123 0 .217.03.28.091s.104.158.12.294h.328c-.021-.207-.095-.368-.223-.482s-.296-.171-.505-.171a.718.718 0 0 0-.683.426 1.116 1.116 0 0 0-.095.473v.177c.003.174.035.328.098.46s.151.234.266.306a.748.748 0 0 0 .4.107c.216 0 .389-.056.52-.169zm1.936-.266c.064-.141.096-.304.096-.49v-.105c-.001-.185-.034-.347-.099-.486a.726.726 0 0 0-.687-.432.757.757 0 0 0-.411.113c-.119.075-.211.183-.277.324s-.098.305-.098.49v.107c.001.181.034.342.099.48s.159.246.279.322a.764.764 0 0 0 .411.112c.155 0 .293-.037.411-.112s.212-.183.276-.323zm-.352-1.071c.08.112.12.273.12.483v.099c0 .214-.04.376-.119.487s-.19.167-.336.167c-.144 0-.257-.057-.339-.171s-.121-.275-.121-.483v-.109c.002-.204.043-.362.122-.473s.192-.168.335-.168c.146 0 .258.056.337.168z" style="fill:var(--color3, #afb1b8)"/>
        </symbol>
        <symbol id="icon-logo-2" viewBox="0 0 57 32">
            <path fill="#afb1b8" d="M26.727 3.165h-.073a7.542 7.542 0 0 0-.336-.012h-.243c-.212 0-.428.005-.642.016l-.024-.001-.025.001h.001c-2.059.12-3.971.635-5.699 1.47l.09-.039-.231.111V16.52l.54-.183a20.64 20.64 0 0 1 1.5-.445 17.864 17.864 0 0 1 4.305-.574h.013v1.551a11.77 11.77 0 0 0-.6.018l.032-.001h-.045c-1.212.068-2.348.25-3.442.537l.12-.027c-1.503.382-2.82.91-4.044 1.586l.087-.044V3.793a15.524 15.524 0 0 1 4.042-1.665l.11-.024a15.5 15.5 0 0 1 3.909-.504h.231c.273.007.538.019.788.038.719.052 1.384.162 2.028.328l-.078-.017v1.527a11.39 11.39 0 0 0-1.85-.282l-.039-.002-.039-.003c-.132-.011-.263-.022-.386-.022zm2.688 1.561c.339.026.689.038 1.044.038a16.84 16.84 0 0 0 4.231-.554l-.117.026a16.884 16.884 0 0 0 4.043-1.588l-.087.044v14.875a15.566 15.566 0 0 1-4.043 1.665l-.11.024c-1.173.314-2.52.497-3.909.503h-.1c-1.02 0-2.01-.128-2.955-.368l.083.018V4.438c.229.053.465.102.706.142.394.066.81.115 1.214.145zm7.57.115-.54.182c-.326.12-.827.273-1.334.411l-.166.038c-1.344.36-2.888.569-4.48.575h-.004c-.352 0-.676-.01-.989-.03l-.43-.028v12.148l.37.033c.343.03.696.045 1.052.045a14.371 14.371 0 0 0 3.631-.48l-.1.023a14.726 14.726 0 0 0 2.847-1.03l-.088.039.231-.111V4.843zM19.06 24.113a.806.806 0 0 0-.269-.184l-.005-.002a.77.77 0 0 0-.297-.058l-.03.001h.001-.012a.897.897 0 0 0-.341.067l.006-.002a.786.786 0 0 0-.442.444l-.002.005a.87.87 0 0 0-.062.325v.011-.001 2.023a.94.94 0 0 0 .08.415c.05.107.118.197.201.27l.001.001a.718.718 0 0 0 .278.144c.09.026.195.042.302.042h.007a.747.747 0 0 0 .324-.073l-.005.002a.869.869 0 0 0 .27-.187.88.88 0 0 0 .175-.265l.002-.006a.804.804 0 0 0 .065-.319v-.23h-.529v.192a.46.46 0 0 1-.032.171l.001-.003a.315.315 0 0 1-.077.114.34.34 0 0 1-.108.058l-.002.001a.384.384 0 0 1-.11.019.263.263 0 0 1-.14-.021l.002.001a.276.276 0 0 1-.109-.087l-.001-.001a.477.477 0 0 1-.071-.25v-.022.001-1.907c0-.103.024-.2.067-.286l-.002.004a.28.28 0 0 1 .11-.098l.002-.001a.269.269 0 0 1 .148-.024h-.001.01c.092 0 .174.045.226.113l.001.001a.425.425 0 0 1 .088.26v.011-.001.175h.524v-.214a.958.958 0 0 0-.067-.352l.002.006a.822.822 0 0 0-.177-.285zm3.142-.023a.933.933 0 0 0-.601-.222.907.907 0 0 0-.322.059l.006-.002a.842.842 0 0 0-.28.166l.001-.001a.846.846 0 0 0-.203.278l-.002.005a.926.926 0 0 0-.077.374v.019-.001 1.941a.932.932 0 0 0 .077.397.791.791 0 0 0 .205.271.837.837 0 0 0 .279.171.907.907 0 0 0 .638-.002l-.006.002a.9.9 0 0 0 .287-.172l-.001.001a.849.849 0 0 0 .198-.266l.002-.005a.92.92 0 0 0 .077-.372v-.026.001-1.959a.947.947 0 0 0-.079-.38l.002.006a.876.876 0 0 0-.199-.283zm-.247 2.616.001.03a.352.352 0 0 1-.106.251.387.387 0 0 1-.499 0h.001a.346.346 0 0 1-.107-.251l.001-.031v.001-1.941l-.001-.03c0-.098.041-.187.106-.251a.387.387 0 0 1 .499 0h-.001a.346.346 0 0 1 .107.251l-.001.032v-.001 1.941zm4.374.867v-3.674h-.509l-.668 1.945h-.009l-.673-1.945h-.503v3.674h.525v-2.235h.009l.514 1.58h.262l.518-1.58h.009v2.235h.525zm2.982-3.416a.729.729 0 0 0-.292-.199l-.005-.002a1.151 1.151 0 0 0-.36-.057h-.8v3.674h.523v-1.435h.27a.964.964 0 0 0 .472-.1.773.773 0 0 0 .285-.277l.002-.003c.058-.092.1-.2.119-.315l.001-.005c.018-.116.029-.249.029-.385v-.034.002l.001-.061c0-.165-.019-.325-.055-.478l.003.014a.789.789 0 0 0-.193-.338zm-.27 1.12a.45.45 0 0 1-.05.194l.001-.003a.3.3 0 0 1-.133.128l-.002.001a.52.52 0 0 1-.219.047l-.029-.001h.001-.239v-1.249h.27l.025-.001c.077 0 .149.017.215.048l-.003-.001a.304.304 0 0 1 .122.134l.001.002a.537.537 0 0 1 .046.205v.244c0 .085.005.174 0 .252h-.005zm2.75-1.378h-.429l-.809 3.674h.523l.154-.789h.714l.154.789h.524l-.83-3.674zm-.483 2.384.258-1.332h.009l.256 1.332h-.524zm3.865-.171h-.009l-.791-2.213h-.503v3.674h.523v-2.209h.011l.8 2.209h.492v-3.674h-.523v2.213zm3.199-2.213-.421 1.461h-.011l-.421-1.461h-.554l.719 2.121v1.553h.524V26.02l.719-2.121h-.554zM17.6 28.61h.252v.708h.171v-.708h.251v-.145h-.675v.145zm2.121-.145-.331.853h.182l.07-.194h.34l.073.194h.186l-.339-.853h-.182zm-.027.516.116-.316.116.316h-.232zm2.124.023h.197v.11a.329.329 0 0 1-.202.072h-.012a.218.218 0 0 1-.169-.081.356.356 0 0 1-.064-.204l.001-.02v.001c0-.19.082-.285.246-.285l.018-.001c.039 0 .075.012.104.033h-.001c.035.025.06.061.071.102v.001l.169-.033c-.036-.167-.156-.251-.362-.251h-.011a.43.43 0 0 0-.287.11.415.415 0 0 0-.123.33v-.001.02c0 .115.041.22.11.301l-.001-.001a.41.41 0 0 0 .296.126l.029-.001h-.001.014a.515.515 0 0 0 .348-.136v-.336h-.37v.144zm2.141-.539h-.173v.853h.598v-.145h-.425v-.708zm1.81 0h-.173v.853h.173v-.853zm1.77.57-.349-.57h-.167v.853h.161v-.557l.343.557h.171v-.853h-.158v.57zm1.601-.092h.425v-.145h-.425v-.187h.457v-.145h-.63v.853h.648v-.145h-.475v-.231zm3.88-.141h-.336v-.336h-.171v.853h.171v-.373h.336v.373h.171v-.853h-.171v.336zm1.609.141h.426v-.145h-.426v-.187h.459v-.145h-.63v.853h.646v-.145h-.475v-.231zm2.183 0c.148-.023.224-.102.224-.237l.001-.024a.203.203 0 0 0-.084-.165h-.001a.48.48 0 0 0-.216-.051l-.035.001h.002-.362v.853h.171v-.357h.048a.23.23 0 0 1 .094.02l-.001-.001a.178.178 0 0 1 .06.062v.001l.186.271h.205L37 29.149a.598.598 0 0 0-.187-.203l-.002-.001zm-.172-.118h-.127v-.214h.135l.036-.001c.049 0 .097.008.141.023l-.003-.001a.113.113 0 0 1-.007.174.466.466 0 0 1-.143.021l-.033-.001h.001zm1.818.118h.425v-.145h-.425v-.187h.459v-.145h-.631v.853h.648v-.145h-.475v-.231z" style="fill:var(--color3, #afb1b8)"/>
        </symbol>
        <symbol id="icon-logo-3" viewBox="0 0 57 32">
            <path fill="#afb1b8" d="M19.417 26.187a.07.07 0 0 1 .025.005.057.057 0 0 1 .021.013l.116.111a.955.955 0 0 1-.327.211 1.254 1.254 0 0 1-.434.076h-.031.002-.024c-.148 0-.29-.026-.421-.074l.009.003a.942.942 0 0 1-.329-.2c-.094-.089-.166-.194-.212-.308s-.074-.245-.074-.384v-.013.001-.013c0-.139.029-.271.082-.39l-.002.006a.91.91 0 0 1 .225-.308 1.06 1.06 0 0 1 .349-.201 1.34 1.34 0 0 1 .435-.071h.016-.001.027c.14 0 .274.024.399.067l-.009-.003c.115.043.221.104.313.178l-.097.119a.08.08 0 0 1-.024.021.064.064 0 0 1-.034.009h-.006a.103.103 0 0 1-.043-.013l-.052-.032-.073-.04a.676.676 0 0 0-.092-.037l-.006-.002a.93.93 0 0 0-.126-.031l-.006-.001a.987.987 0 0 0-.16-.013h-.014.001-.012a.928.928 0 0 0-.318.055l.007-.002a.683.683 0 0 0-.417.387.783.783 0 0 0-.06.303v.011-.001.012c0 .11.022.216.062.312l-.002-.005a.68.68 0 0 0 .402.383.867.867 0 0 0 .3.05h.017c.056 0 .112-.004.167-.011l-.006.001a.712.712 0 0 0 .273-.087l-.003.002a.789.789 0 0 0 .116-.08l-.002.001a.088.088 0 0 1 .055-.02zm3.359-.558v.012a.966.966 0 0 1-.081.388l.002-.006c-.047.114-.122.218-.219.305s-.214.155-.344.2a1.409 1.409 0 0 1-.894-.003l.01.003a1.027 1.027 0 0 1-.342-.201.904.904 0 0 1-.221-.308 1.022 1.022 0 0 1 0-.787.94.94 0 0 1 .221-.31c.097-.084.214-.15.342-.193a1.383 1.383 0 0 1 .894.003l-.01-.003c.129.046.246.114.343.201a.914.914 0 0 1 .298.699zm-.306 0v-.017c0-.108-.02-.21-.057-.305l.002.006a.653.653 0 0 0-.402-.385 1.027 1.027 0 0 0-.65.002l.007-.002a.683.683 0 0 0-.246.149.63.63 0 0 0-.157.236.915.915 0 0 0 .002.638l-.002-.006a.643.643 0 0 0 .403.384 1.029 1.029 0 0 0 .65-.003l-.007.002a.698.698 0 0 0 .246-.148.662.662 0 0 0 .156-.236.815.815 0 0 0 .055-.298v-.019.001zm2.597.331.03.071.033-.071a.937.937 0 0 1 .039-.072l-.002.003.743-1.174c.015-.02.028-.033.042-.037s.033-.007.051-.007h.231v1.909h-.26v-1.463l-.001-.033.001-.034v.002l-.747 1.19a.111.111 0 0 1-.043.043h-.001a.13.13 0 0 1-.063.016H25.075a.134.134 0 0 1-.063-.016h.001a.105.105 0 0 1-.043-.043v-.001l-.769-1.198v1.532h-.252v-1.905h.23c.018 0 .035.002.052.007h-.001a.08.08 0 0 1 .041.036l.759 1.175c.014.02.026.042.037.066l.001.003zm2.797-.095v.715h-.291v-1.906h.673c.12 0 .237.015.348.044l-.01-.002a.724.724 0 0 1 .256.119.492.492 0 0 1 .145.187.576.576 0 0 1 .049.244v.007c0 .086-.02.167-.055.24l.001-.003a.54.54 0 0 1-.157.191.744.744 0 0 1-.252.125l-.005.001a1.208 1.208 0 0 1-.327.044h-.025.001l-.352-.005zm0-.205h.362a.842.842 0 0 0 .221-.03l-.006.001a.479.479 0 0 0 .164-.083l-.001.001a.338.338 0 0 0 .098-.124l.001-.002a.361.361 0 0 0 .035-.156v-.005l.001-.02a.313.313 0 0 0-.031-.137l.001.002a.383.383 0 0 0-.101-.13l-.001-.001a.624.624 0 0 0-.391-.102h-.352v.786zm3.908.923h-.234a.111.111 0 0 1-.06-.018.116.116 0 0 1-.038-.044v-.001l-.198-.461h-.993l-.205.461a.108.108 0 0 1-.036.043.108.108 0 0 1-.062.019h-.234l.872-1.909h.302l.884 1.909zm-1.439-.709h.82l-.346-.777a1.205 1.205 0 0 1-.063-.171l-.002-.009-.034.1a.735.735 0 0 1-.034.086l.002-.006-.343.776zm2.696-1.192a.12.12 0 0 1 .043.034l1.272 1.439v-1.482h.26v1.909h-.149a.139.139 0 0 1-.057-.012h.001a.148.148 0 0 1-.046-.035l-1.271-1.438.001.033-.001.034v-.002 1.419h-.26v-1.909h.158c.017 0 .034.003.05.009h-.001zm3.719 1.141v.758h-.291v-.758l-.804-1.15h.266a.1.1 0 0 1 .057.017.173.173 0 0 1 .039.042v.001l.503.742a.717.717 0 0 1 .088.169l.038-.082a.577.577 0 0 1 .051-.089l-.002.002.496-.747a.202.202 0 0 1 .037-.04.096.096 0 0 1 .058-.019h.268l-.806 1.155zM24.923 21.47c.127.014.255.025.384.035 1.962-.763 3.622-2.011 4.772-3.588s1.74-3.415 1.695-5.282l-2.162-1.879c.44 1.988.234 4.043-.594 5.935s-2.245 3.547-4.094 4.779z" style="fill:var(--color3, #afb1b8)"/>
            <path fill="#afb1b8" d="m24.151 21.383.058.01c1.975-1.228 3.482-2.942 4.323-4.921s.981-4.133.4-6.181l-3.08-2.676c1.246 2.2 1.747 4.661 1.446 7.098s-1.393 4.75-3.147 6.67zm10.445-6.542c-.523 2.052-1.794 3.902-3.624 5.276-.534.404-1.111.763-1.722 1.074 1.49-.38 2.859-1.053 4.003-1.966s2.03-2.042 2.592-3.3l-1.249-1.084z" style="fill:var(--color3, #afb1b8)"/>
            <path fill="#afb1b8" d="m34.106 14.539-1.778-1.545c-.034 1.762-.61 3.483-1.669 4.986s-2.562 2.731-4.352 3.559h.009c.421 0 .836-.023 1.245-.066l-.051.004c1.673-.593 3.151-1.537 4.303-2.748s1.94-2.65 2.295-4.189zm-9.697-8.053L22.287 4.64c-1.897.637-3.528 1.756-4.68 3.212s-1.772 3.179-1.778 4.946c.007 1.952.763 3.846 2.149 5.383s3.322 2.628 5.501 3.101c1.946-2.06 3.085-4.605 3.252-7.266s-.647-5.299-2.323-7.53zm14.599 7.769c-.008-2.316-1.07-4.535-2.955-6.173s-4.439-2.561-7.105-2.567a11.3 11.3 0 0 0-3.602.582l12.99 11.286a7.647 7.647 0 0 0 .672-3.128z" style="fill:var(--color3, #afb1b8)"/>
        </symbol>
        <symbol id="icon-logo-4" viewBox="0 0 57 32">
            <path fill="#2196f3" d="M12.878 11.255h-.002c-1.279 0-2.316.921-2.316 2.058v.001c0 1.137 1.037 2.058 2.316 2.058h.002c1.279 0 2.316-.921 2.316-2.058v-.001c0-1.137-1.037-2.058-2.316-2.058zm17.093-.658c-.004-1.579-.711-3.092-1.967-4.208s-2.958-1.745-4.735-1.749c-1.777.003-3.48.631-4.737 1.748s-1.964 2.63-1.968 4.209v8.706s13.405-1.327 13.406-8.704v-.001zM5.867 22.16c.003 1.098.496 2.151 1.369 2.928s2.058 1.215 3.294 1.218c1.236-.003 2.42-.441 3.294-1.218s1.366-1.829 1.37-2.927v-6.057s-9.327.924-9.327 6.056zm4.663 1.085c-.242 0-.478-.064-.678-.183s-.357-.289-.45-.487c-.092-.198-.117-.417-.069-.627s.163-.404.334-.556c.171-.152.388-.255.625-.297s.482-.02.706.062c.223.082.414.221.548.4s.206.388.206.603v.002c0 .15-.034.293-.094.42l.003-.006c-.061.132-.151.252-.264.353s-.248.182-.397.236a1.32 1.32 0 0 1-.467.083h-.002v-.004zm9.426-.598h-.9v.93h-.469v-2.275h1.481v.38h-1.012v.588h.9v.378zm2.253-.156c0 .224-.04.42-.119.589a.893.893 0 0 1-.847.528c-.189 0-.357-.045-.505-.136s-.262-.22-.344-.387a1.344 1.344 0 0 1-.123-.581v-.112c0-.224.04-.421.12-.591a.895.895 0 0 1 .848-.529c.189 0 .358.046.505.137a.888.888 0 0 1 .342.392c.081.17.122.366.122.589v.102zm-.475-.103c0-.238-.043-.42-.128-.544s-.207-.186-.366-.186a.416.416 0 0 0-.364.184c-.085.122-.129.301-.13.538v.111c0 .232.043.412.128.541s.208.192.369.192a.415.415 0 0 0 .363-.184c.084-.124.127-.304.128-.541v-.111zm1.996.592a.237.237 0 0 0-.094-.203 1.203 1.203 0 0 0-.337-.15 2.418 2.418 0 0 1-.386-.156c-.258-.14-.387-.328-.387-.564 0-.123.034-.232.103-.328a.688.688 0 0 1 .298-.227c.13-.054.276-.081.438-.081.163 0 .307.03.434.089a.662.662 0 0 1 .401.614h-.469c0-.104-.033-.185-.098-.242s-.158-.087-.277-.087a.426.426 0 0 0-.267.073.225.225 0 0 0-.095.191c0 .074.037.136.111.186.075.05.185.097.33.141.267.08.461.18.583.298s.183.267.183.444a.55.55 0 0 1-.223.464c-.149.111-.349.167-.602.167-.175 0-.334-.032-.478-.095-.144-.065-.254-.153-.33-.264s-.113-.241-.113-.388h.47c0 .251.15.377.45.377a.442.442 0 0 0 .261-.067.222.222 0 0 0 .094-.191zm2.501-1.298h-.697v1.895h-.469v-1.895h-.687v-.38h1.853v.38zm1.638.909h-.9v.609h1.056v.377H26.5v-2.275h1.522v.38h-1.053v.542h.9v.367zm1.273.153h-.373v.833H28.3v-2.275h.845c.269 0 .476.06.622.18s.219.289.219.508a.697.697 0 0 1-.102.389.689.689 0 0 1-.305.247l.492.93v.022h-.503l-.427-.833zm-.373-.379h.378c.118 0 .209-.03.273-.089a.321.321 0 0 0 .097-.248.343.343 0 0 0-.092-.253c-.06-.061-.154-.092-.28-.092h-.377v.683zm2.84.41v.802h-.469v-2.275h.887c.171 0 .321.031.45.094a.703.703 0 0 1 .405.659.655.655 0 0 1-.23.528c-.152.128-.363.192-.633.192h-.411zm0-.379h.419c.124 0 .218-.029.283-.088.066-.058.098-.142.098-.25 0-.111-.033-.202-.098-.27s-.156-.104-.272-.106h-.43v.714zm2.966.195h-.9v.609h1.056v.377h-1.525v-2.275h1.522v.38h-1.053v.542h.9v.367zm2.175-.909h-.697v1.895h-.469v-1.895h-.688v-.38h1.853v.38zm1.637.909h-.9v.609h1.056v.377h-1.525v-2.275h1.522v.38h-1.053v.542h.9v.367zm1.274.153h-.373v.833h-.469v-2.275h.845c.269 0 .476.06.622.18s.219.289.219.508a.697.697 0 0 1-.102.389.689.689 0 0 1-.305.247l.492.93v.022h-.503l-.427-.833zm-.374-.379h.378c.118 0 .209-.03.273-.089a.321.321 0 0 0 .097-.248.343.343 0 0 0-.092-.253c-.06-.061-.154-.092-.28-.092h-.377v.683zm2.755.615a.237.237 0 0 0-.094-.203 1.203 1.203 0 0 0-.337-.15 2.418 2.418 0 0 1-.386-.156c-.258-.14-.388-.328-.388-.564 0-.123.034-.232.103-.328a.688.688 0 0 1 .298-.227c.13-.054.276-.081.438-.081.163 0 .307.03.434.089a.675.675 0 0 1 .295.248.646.646 0 0 1 .106.366h-.469c0-.104-.033-.185-.098-.242s-.158-.087-.277-.087a.426.426 0 0 0-.267.073.225.225 0 0 0-.095.191c0 .074.037.136.111.186.075.05.185.097.33.141.267.08.461.18.583.298s.183.267.183.444a.548.548 0 0 1-.223.464c-.149.111-.349.167-.602.167-.175 0-.334-.032-.478-.095a.773.773 0 0 1-.33-.264.678.678 0 0 1-.112-.388h.47c0 .251.15.377.45.377a.442.442 0 0 0 .261-.067.222.222 0 0 0 .094-.191z" style="fill:var(--color2, )"/>
        </symbol>
        <symbol id="icon-logo-5" viewBox="0 0 57 32">
            <path fill="#afb1b8" d="M14.27 23.859c.13.147.199.332.196.521l.001.04a.752.752 0 0 1-.073.325l.002-.005a.817.817 0 0 1-.233.297c-.252.175-.565.26-.881.24h-1.549v-3.302h1.517c.299-.018.596.059.84.219.098.075.176.17.227.277s.074.224.068.341a.725.725 0 0 1-.176.505.839.839 0 0 1-.462.258.897.897 0 0 1 .523.282zm-1.816-.499h.648a.653.653 0 0 0 .412-.11.399.399 0 0 0 .11-.144l.001-.003a.353.353 0 0 0 .03-.144l-.002-.033v.001l.001-.028a.376.376 0 0 0-.031-.15l.001.002a.41.41 0 0 0-.108-.147h-.001a.665.665 0 0 0-.425-.111h-.638v.866zm1.124 1.267a.407.407 0 0 0 .118-.149l.001-.003a.37.37 0 0 0 .035-.158l-.001-.027v.001l.001-.023a.38.38 0 0 0-.037-.165l.001.002a.421.421 0 0 0-.121-.152l-.001-.001a.714.714 0 0 0-.44-.119h-.68v.908h.689a.732.732 0 0 0 .435-.114zm3.793.651-.844-1.291h-.317v1.291h-.726v-3.302h1.374c.346-.022.689.078.957.281.192.179.308.415.327.666s-.061.499-.224.7c-.17.178-.401.296-.655.336l.898 1.32h-.789zm-1.161-1.74h.594c.412 0 .618-.167.618-.5l.001-.028a.441.441 0 0 0-.035-.175l.001.003a.494.494 0 0 0-.118-.171.687.687 0 0 0-.467-.134h-.601l.007 1.005zm5.129 1.076h-1.446l-.255.665h-.761l1.328-3.265h.823l1.323 3.265h-.761l-.25-.665zm-.194-.5-.529-1.394-.529 1.394h1.057zm5.16 1.164h-.721l-1.616-2.245v2.245h-.719v-3.302h.719l1.616 2.258v-2.258h.721v3.302zm4.112-.79a1.501 1.501 0 0 1-.652.582 2.282 2.282 0 0 1-1.013.208h-1.283v-3.302h1.283c.351-.008.698.061 1.013.203.276.127.503.328.652.576a1.78 1.78 0 0 1 0 1.732zm-.824-.079c.206-.219.319-.499.319-.788s-.113-.569-.319-.788a1.326 1.326 0 0 0-.902-.281h-.5v2.137h.5c.329.019.654-.082.902-.281zm-7.803-20.8s9.301 3.215 9.103 7.867v7.869s-9.294-3.217-9.1-7.869l-.004-7.867zm17.389 13.894a13.494 13.494 0 0 1 5.909-1.994v-2.463c-2.444.862-4.517 2.426-5.909 4.457z" style="fill:var(--color3, #afb1b8)"/>
            <path fill="#afb1b8" d="M38.124 18.245c1.438-2.651 3.93-4.696 6.964-5.715V5.432s-13.245 4.58-12.965 11.205V27.84s.59-.205 1.519-.589c0-.358 0-.719.042-1.082.274-3.076 1.871-5.926 4.44-7.924z" style="fill:var(--color3, #afb1b8)"/>
            <path fill="#afb1b8" d="M36.864 22.407a10.73 10.73 0 0 1 .485-2.37l-.021.076c-1.599 1.725-2.568 3.866-2.77 6.122-.019.213-.03.426-.035.645a40.466 40.466 0 0 0 2.548-1.229 10.392 10.392 0 0 1-.249-2.289c0-.336.016-.669.046-.998l-.003.042zm.527.04a10.254 10.254 0 0 0 .175 3.004l-.012-.066c3.619-1.983 7.685-5.046 7.528-8.748v-.323c-2.585.265-5.004 1.3-6.885 2.946a10.29 10.29 0 0 0-.807 3.188z" style="fill:var(--color3, #afb1b8)"/>
        </symbol>
        <symbol id="icon-logo-6" viewBox="0 0 57 32">
            <path fill="#afb1b8" d="M28.493 14.618a1.58 1.58 0 0 1-.323-1.061v-1.538c0-.471.107-.83.321-1.075s.581-.367 1.102-.366c.489 0 .836.104 1.042.313.224.266.333.592.308.92v.361h-.875v-.366l.001-.048c0-.11-.009-.217-.028-.321l.002.011a.352.352 0 0 0-.125-.213.505.505 0 0 0-.317-.083.533.533 0 0 0-.333.088.412.412 0 0 0-.145.235 1.734 1.734 0 0 0-.035.349v.033-.002 1.866c-.014.18.025.36.112.524a.42.42 0 0 0 .175.127.48.48 0 0 0 .228.029h-.002a.478.478 0 0 0 .31-.084.375.375 0 0 0 .13-.227c.018-.101.028-.217.028-.336v-.04.002-.379h.875v.346c.025.342-.082.682-.303.967-.201.228-.544.343-1.047.343s-.884-.122-1.1-.375zm3.644.015c-.221-.239-.332-.588-.332-1.05v-1.617c0-.457.11-.802.332-1.037s.591-.351 1.109-.35c.515 0 .882.117 1.103.35.221.235.333.58.333 1.037v1.617c0 .457-.112.807-.337 1.048s-.591.361-1.1.361c-.509 0-.886-.122-1.109-.36zm1.517-.388a.906.906 0 0 0 .105-.479v-1.98a.88.88 0 0 0-.103-.469.408.408 0 0 0-.179-.129.469.469 0 0 0-.233-.027h.002a.47.47 0 0 0-.235.029l.003-.001a.417.417 0 0 0-.18.129.853.853 0 0 0-.105.469v1.99a.888.888 0 0 0 .105.479c.051.05.114.091.185.119a.612.612 0 0 0 .635-.119v-.009zm2.081-3.619h.942l.708 2.984.725-2.984h.917l.092 4.308h-.678l-.072-2.994-.699 2.994h-.544l-.725-3.005-.067 3.005h-.685l.085-4.308zm4.441 0h1.468c.846 0 1.268.408 1.268 1.223 0 .781-.445 1.171-1.335 1.17h-.5v1.915h-.906l.005-4.308zm1.254 1.841a.7.7 0 0 0 .499-.137l-.001.001a.693.693 0 0 0 .13-.486l.001-.048c0-.122-.016-.24-.047-.352l.002.009a.306.306 0 0 0-.067-.118.39.39 0 0 0-.112-.086l-.002-.001a.926.926 0 0 0-.356-.07l-.051.001h.002-.352v1.287h.352zm2.788-1.841h.973l.998 4.308h-.844l-.197-.993h-.868l-.203.993h-.857l.998-4.308zm.832 2.815-.339-1.808-.339 1.808h.678zm1.946-2.815h.634l1.214 2.457v-2.457h.752v4.308h-.603l-1.221-2.565v2.565h-.777l.002-4.308zm4.361 2.665-1.009-2.659h.85l.616 1.708.578-1.708h.832l-.997 2.659v1.642h-.87v-1.642zm-21.465 3.526v.225h-.739v1.75h-.31v-1.75H28.1v-.225h1.792zm2.317 1.976h-.245a.105.105 0 0 1-.061-.019.11.11 0 0 1-.04-.045v-.001l-.214-.469h-1.026l-.214.469a.126.126 0 0 1-.033.053.108.108 0 0 1-.062.019h-.244l.906-1.976h.315l.917 1.968zm-1.5-.734h.855l-.362-.804a1.278 1.278 0 0 1-.064-.176l-.003-.01a4.03 4.03 0 0 0-.034.105l-.033.083-.359.802zm3.062.54a1.005 1.005 0 0 0 .322-.025l-.007.001c.052-.011.096-.023.138-.038l-.008.002c.04-.014.08-.031.121-.048v-.444h-.366a.059.059 0 0 1-.023-.004h.001a.084.084 0 0 1-.023-.012c-.006-.004-.01-.01-.014-.016a.034.034 0 0 1-.004-.018v-.154h.703v.757a1.3 1.3 0 0 1-.373.159l-.009.002a1.59 1.59 0 0 1-.219.04l-.007.001a2.633 2.633 0 0 1-.261.012h-.016a1.39 1.39 0 0 1-.454-.076l.01.003a1.104 1.104 0 0 1-.362-.206c-.101-.09-.18-.196-.234-.313s-.083-.253-.083-.397v-.013.001-.012c0-.145.03-.282.084-.407l-.003.007a.907.907 0 0 1 .234-.313c.103-.089.227-.159.362-.205.14-.047.301-.074.468-.074h.019-.001.001c.088 0 .175.006.26.018l-.01-.001c.082.012.154.029.224.053l-.009-.003a1.122 1.122 0 0 1 .339.181l-.087.122a.069.069 0 0 1-.029.027.092.092 0 0 1-.041.01.111.111 0 0 1-.057-.016h.001a.892.892 0 0 1-.094-.05l.005.003a.687.687 0 0 0-.116-.051l-.006-.002a1.027 1.027 0 0 0-.16-.043l-.007-.001a1.349 1.349 0 0 0-.218-.017h-.012.001-.011c-.121 0-.237.02-.346.057l.008-.002a.704.704 0 0 0-.435.402.917.917 0 0 0 .002.665l-.002-.006a.756.756 0 0 0 .446.405c.115.034.237.047.359.039zm2.888-.032h.989v.225h-1.292v-1.976h.31l-.007 1.75zm2.019.225h-.31v-1.976h.31v1.976zm1.152-1.966a.151.151 0 0 1 .047.036l1.324 1.489-.001-.035.001-.037v.002-1.472h.27v1.984h-.166a.143.143 0 0 1-.058-.012h.001a.204.204 0 0 1-.049-.037l-1.323-1.488v1.536h-.259v-1.976h.161a.13.13 0 0 1 .052.01h-.001zm3.923-.009v.217h-1.098v.652h.89v.21h-.89v.674h1.098v.217h-1.417v-1.971h1.417zM11.286 4.616l13.757 3.372v11.818l-13.757-3.371V4.616zm-.882-1.007V17.01l15.52 3.806V7.417L10.404 3.61z" style="fill:var(--color3, #afb1b8)"/>
            <path fill="#afb1b8" d="M18.722 27.036 3.2 23.227V9.828l15.522 3.807v13.401z" style="fill:var(--color3, #afb1b8)"/>
            <path fill="#afb1b8" d="m10.661 4.465 13.578 3.33-5.774 4.987L4.885 9.45l5.776-4.985zm-.257-.856L3.2 9.828l15.522 3.807 7.202-6.219-15.52-3.807zm9.191 22.673 6.329-5.465-6.329-1.553v7.018z" style="fill:var(--color3, #afb1b8)"/>
        </symbol>
        <symbol id="icon-smartphone" viewBox="0 0 20 32">
            <path fill="#757575" d="M17 0H3C1.346 0 0 1.346 0 3v26c0 1.654 1.346 3 3 3h14c1.654 0 3-1.346 3-3V3c0-1.654-1.346-3-3-3zM3 2h14a1 1 0 0 1 1 1v21H2V3a1 1 0 0 1 1-1zm14 28H3a1 1 0 0 1-1-1v-3h16v3a1 1 0 0 1-1 1z" style="fill:var(--color4, #757575)"/>
            <path fill="#757575" d="M4.707 27.478c.391.365.391.956 0 1.321s-1.024.365-1.414 0c-.391-.365-.391-.956 0-1.321s1.024-.365 1.414 0z" style="fill:var(--color4, #757575)"/>
        </symbol>
        <symbol id="icon-twitter" viewBox="0 0 32 32">
            <path fill="#afb1b8" d="M32 6.078c-1.19.522-2.458.868-3.78 1.036a6.523 6.523 0 0 0 2.886-3.626 13.11 13.11 0 0 1-4.16 1.588A6.574 6.574 0 0 0 22.154 3c-3.632 0-6.556 2.948-6.556 6.562 0 .52.044 1.02.152 1.496-5.454-.266-10.28-2.88-13.522-6.862a6.605 6.605 0 0 0-.898 3.316 6.57 6.57 0 0 0 2.914 5.452 6.479 6.479 0 0 1-2.964-.808v.072c0 3.188 2.274 5.836 5.256 6.446a6.548 6.548 0 0 1-1.72.216 5.8 5.8 0 0 1-1.242-.112c.85 2.598 3.262 4.508 6.13 4.57a13.098 13.098 0 0 1-8.12 2.798h-.015.001c-.538 0-1.054-.024-1.57-.09A18.469 18.469 0 0 0 10.064 29c12.072 0 18.672-10 18.672-18.668 0-.29-.01-.57-.024-.848A13.087 13.087 0 0 0 32 6.078z" style="fill:var(--color3, #afb1b8)"/>
        </symbol>
        <symbol id="icon-client1" viewBox="0 0 28 32">
            <path fill="#afb1b8" d="m4.085 0 4.771 4.517-8.857-.005v21.915h23.149v-8.379l4.766 4.512V.001H4.084zm18.854 17.517L9.411 4.71h13.528v12.807zm-4.2 5.703H3.663V8.482h1.066v13.74H18.74v.997zM7.224 29.345l-.557 1.147-.557-1.147h-.467l.813 1.529v.891h.422v-.891l.811-1.529h-.465zm.7 2.42.196-.564h.938l.197.564h.439l-.916-2.42H8.4l-.914 2.42h.437zm.664-1.906.351 1.004h-.701l.351-1.004zm2.218.945a.544.544 0 0 0-.091.303v.004c0 .204.072.37.214.497s.336.19.575.19a1 1 0 0 0 .618-.195l.136.161h.468l-.355-.421c.14-.191.209-.435.209-.733h-.351a.973.973 0 0 1-.101.444l-.468-.552.165-.12a.922.922 0 0 0 .249-.249l.002-.003a.53.53 0 0 0 .076-.275v-.013a.495.495 0 0 0-.169-.374h-.001a.61.61 0 0 0-.408-.157h-.025.001c-.195 0-.35.056-.465.166s-.173.259-.173.449c0 .078.018.157.054.241.038.083.104.184.197.302-.179.129-.3.24-.36.334zm1.092.536a.613.613 0 0 1-.382.136h-.02a.395.395 0 0 1-.27-.106.36.36 0 0 1-.108-.259v-.014.001c0-.129.067-.245.2-.346l.052-.037.528.624zm-.434-1.073c-.114-.141-.172-.257-.172-.351 0-.081.024-.148.07-.201a.239.239 0 0 1 .178-.081h.01-.001.009c.067 0 .127.026.173.068a.214.214 0 0 1 .072.161v.009a.3.3 0 0 1-.103.226l-.052.041-.184.127zm3.94 1.315c.166-.145.261-.347.286-.605h-.419c-.022.173-.075.296-.158.37s-.208.112-.372.112c-.18 0-.318-.069-.412-.206s-.14-.337-.14-.599v-.214c.003-.259.052-.453.15-.587a.494.494 0 0 1 .422-.201c.157 0 .276.039.357.116s.133.202.153.376h.419c-.027-.265-.121-.47-.285-.615s-.378-.218-.645-.218a.978.978 0 0 0-.525.142.925.925 0 0 0-.345.396l-.002.006a1.396 1.396 0 0 0-.122.576v.03-.001.226c.003.223.045.418.125.587s.193.298.339.39a.955.955 0 0 0 .511.136c.276 0 .497-.072.663-.216zm2.471-.339c.082-.18.123-.388.123-.625v-.158c0-.216-.047-.421-.131-.605l.004.009a.932.932 0 0 0-.35-.406l-.004-.002c-.152-.095-.326-.143-.524-.143s-.372.048-.525.144a.939.939 0 0 0-.354.414c-.079.175-.125.38-.125.595v.032-.002.136c.001.232.043.436.126.613a.95.95 0 0 0 .356.411.98.98 0 0 0 .525.143.971.971 0 0 0 .526-.143.941.941 0 0 0 .352-.413zm-.45-1.369c.102.143.152.349.152.618v.126c0 .272-.05.48-.151.622a.49.49 0 0 1-.429.213h-.017a.503.503 0 0 1-.413-.216l-.001-.002c-.104-.145-.155-.351-.155-.617v-.14c.002-.26.054-.462.156-.603a.498.498 0 0 1 .409-.215h.018-.001c.187 0 .33.072.431.214z" style="fill:var(--color3, #afb1b8)"/>
        </symbol>
        <symbol id="icon-client2" viewBox="0 0 25 32">
            <path fill="#afb1b8" d="M10.532 1.806h-.084a9.985 9.985 0 0 0-.388-.014h-.28c-.244 0-.494.006-.741.018l-.028-.001-.029.001h.001a17.353 17.353 0 0 0-6.576 1.696l.104-.045-.266.128v13.626l.623-.212a23.32 23.32 0 0 1 1.731-.513c1.488-.398 3.202-.638 4.967-.661h.014v1.79c-.223.001-.439.007-.655.018h-.052a20.051 20.051 0 0 0-3.971.619l.139-.031a19.399 19.399 0 0 0-4.666 1.83l.1-.051V2.529A17.896 17.896 0 0 1 5.14.608L5.267.58a17.862 17.862 0 0 1 4.51-.582h.267c.314.008.622.022.91.044.829.06 1.597.187 2.339.378l-.09-.02v1.762a13.17 13.17 0 0 0-2.134-.326l-.045-.003-.044-.004c-.152-.013-.304-.026-.446-.026zm3.101 1.801c.391.03.796.044 1.205.044a19.413 19.413 0 0 0 4.881-.639l-.135.03a19.492 19.492 0 0 0 4.665-1.831l-.101.051v17.163a17.972 17.972 0 0 1-4.664 1.921l-.127.028a17.962 17.962 0 0 1-4.511.581h-.115c-1.177 0-2.319-.147-3.409-.425l.095.021V3.276c.265.062.537.118.814.164.455.077.934.133 1.401.167zm8.734.133-.623.209c-.572.193-1.151.365-1.731.518-1.551.415-3.332.657-5.169.663h-.004c-.406 0-.78-.011-1.141-.034l-.497-.033V19.08l.426.037c.395.035.803.052 1.214.052a16.554 16.554 0 0 0 4.189-.553l-.116.026a16.96 16.96 0 0 0 3.285-1.189l-.102.044.266-.128V3.739zM1.684 25.977a.916.916 0 0 0-.661-.281l-.034.001h.002-.014c-.139 0-.272.028-.393.078l.007-.003a.904.904 0 0 0-.51.512l-.002.006a1.001 1.001 0 0 0-.071.386v2.335c-.006.164.026.328.092.479.055.12.135.226.234.313a.824.824 0 0 0 .32.166c.114.031.231.048.349.048a.985.985 0 0 0 .968-.982v-.261H1.36v.222c0 .07-.013.136-.037.198l.001-.004a.38.38 0 0 1-.089.132.426.426 0 0 1-.255.089.308.308 0 0 1-.286-.125l-.001-.001a.548.548 0 0 1-.082-.289l.001-.024v.001-2.177a.74.74 0 0 1 .075-.349.31.31 0 0 1 .262-.143l.038.002H.986h.012c.107 0 .201.052.26.131l.001.001a.493.493 0 0 1 .101.3v.014-.001.202h.604v-.249c0-.143-.027-.28-.077-.405l.003.007a.955.955 0 0 0-.205-.329zm3.626-.026a1.051 1.051 0 0 0-1.058-.191.965.965 0 0 0-.557.511l-.002.006a1.08 1.08 0 0 0-.089.452v2.239c-.004.158.026.314.089.458a.888.888 0 0 0 .236.313.964.964 0 0 0 .322.197 1.049 1.049 0 0 0 1.059-.198l-.001.001a.948.948 0 0 0 .23-.313c.063-.144.093-.301.089-.458v-2.259c0-.156-.033-.305-.092-.439l.003.007a1.016 1.016 0 0 0-.23-.327zm-.285 3.018.002.035a.398.398 0 0 1-.123.289.446.446 0 0 1-.575 0l.001.001a.398.398 0 0 1-.121-.326v.002-2.239l-.001-.034a.4.4 0 0 1 .123-.289.446.446 0 0 1 .575 0l-.001-.001a.398.398 0 0 1 .121.326v-.002 2.24zm5.047 1v-4.24h-.586l-.771 2.244h-.01l-.777-2.244h-.58v4.239h.606V27.39h.011l.593 1.823h.302l.598-1.823h.01v2.578h.606zm3.441-3.942a.834.834 0 0 0-.342-.232 1.31 1.31 0 0 0-.416-.066h-.024.001-.9v4.24h.604v-1.656h.311c.189.009.376-.031.545-.116a.88.88 0 0 0 .329-.32l.002-.004a1 1 0 0 0 .138-.369c.021-.133.033-.287.033-.444v-.04.002a2.426 2.426 0 0 0-.059-.606.906.906 0 0 0-.223-.39zm-.312 1.292a.538.538 0 0 1-.057.224l.001-.003a.342.342 0 0 1-.154.147l-.002.001a.617.617 0 0 1-.254.054l-.033-.001h.002-.276V26.3h.311l.029-.001c.088 0 .172.02.247.055l-.004-.002a.35.35 0 0 1 .141.154l.001.002a.62.62 0 0 1 .053.236v.282c0 .098.006.201 0 .291H13.2zm3.173-1.59h-.495l-.934 4.24h.604l.177-.911h.823l.178.911h.604l-.958-4.24zm-.557 2.752.297-1.537h.011l.295 1.537h-.604zm4.46-.198h-.011l-.912-2.554h-.581v4.24h.604v-2.55h.012l.923 2.549h.568v-4.239h-.604v2.554zm3.691-2.554-.486 1.686h-.012l-.486-1.686h-.639l.83 2.448v1.791h.604v-1.791l.83-2.447h-.64zM0 31.166h.291v.817h.198v-.817h.289v-.167H0v.168zm2.447-.168-.382.985h.21l.081-.224h.392l.084.224h.215l-.391-.985h-.21zm-.03.595.134-.365.134.365h-.268zm2.449.027h.228v.127a.378.378 0 0 1-.234.083h-.014a.25.25 0 0 1-.195-.094.406.406 0 0 1-.073-.234l.001-.023v.001c0-.219.095-.329.283-.329l.021-.001c.097 0 .178.067.201.157v.001l.194-.038c-.042-.192-.18-.289-.417-.289h-.013a.492.492 0 0 0-.331.127.48.48 0 0 0-.141.38v-.002.023c0 .132.048.254.127.347l-.001-.001c.087.09.209.146.343.146L4.877 32h-.001.016c.155 0 .296-.06.402-.157v-.388h-.426v.166zm2.471-.622h-.199v.985h.689v-.167h-.49v-.817zm2.089 0h-.199v.985h.199v-.985zm2.043.657-.404-.657h-.193v.985h.185v-.643l.396.643h.198v-.985h-.182v.658zm1.846-.106h.49v-.167h-.49v-.215h.527v-.168h-.727v.985h.747v-.167h-.548v-.266zm4.477-.163h-.388v-.388h-.197v.984h.197v-.431h.388v.431h.198v-.985h-.198v.388zm1.857.163h.492v-.167h-.492v-.215h.529v-.168h-.726v.985h.746v-.167h-.548v-.266zm2.519.001c.171-.027.258-.118.258-.274a.23.23 0 0 0-.096-.219h-.001a.555.555 0 0 0-.25-.059l-.04.001h.002-.417v.984h.198v-.412h.055c.039 0 .076.008.109.023l-.002-.001a.201.201 0 0 1 .07.072l.215.313h.236l-.12-.192a.704.704 0 0 0-.215-.235l-.002-.002zm-.199-.137h-.146v-.247h.156a.515.515 0 0 1 .205.024l-.004-.001a.13.13 0 0 1-.009.2.537.537 0 0 1-.164.025l-.039-.001h.002zm2.099.136h.49v-.167h-.49v-.215h.529v-.168h-.729v.985h.747v-.167h-.548v-.266z" style="fill:var(--color3, #afb1b8)"/>
        </symbol>
        <symbol id="icon-client3" viewBox="0 0 34 32">
            <path fill="#afb1b8" d="M5.643 31.315c.012 0 .024.003.035.008s.021.011.03.018l.166.158c-.13.129-.289.232-.468.302a1.78 1.78 0 0 1-.62.109l-.045-.001h.002a1.742 1.742 0 0 1-.622-.101 1.365 1.365 0 0 1-.47-.286l.001.001a1.294 1.294 0 0 1-.301-.432l-.003-.008a1.442 1.442 0 0 1-.106-.548v-.018.001-.029c0-.388.168-.737.436-.977l.001-.001a1.52 1.52 0 0 1 .498-.287 1.96 1.96 0 0 1 .642-.101h.04c.199 0 .39.034.568.096l-.012-.004c.165.062.316.149.447.255l-.139.169a.143.143 0 0 1-.035.03h-.001a.098.098 0 0 1-.048.013h-.008a.132.132 0 0 1-.062-.018h.001l-.074-.046-.104-.058a1.182 1.182 0 0 0-.321-.1l-.007-.001a1.376 1.376 0 0 0-.23-.018h-.019.001-.015c-.16 0-.313.028-.455.079l.009-.003a1.07 1.07 0 0 0-.363.214l.001-.001a.977.977 0 0 0-.235.339 1.117 1.117 0 0 0-.085.432v.017-.001.019c0 .157.031.307.088.444l-.003-.008a.953.953 0 0 0 .576.548c.136.049.281.073.427.072.085.001.17-.004.254-.014.211-.022.4-.106.55-.234l-.001.001a.133.133 0 0 1 .078-.029zm4.798-.798v.017c0 .197-.041.384-.116.553l.003-.009a1.24 1.24 0 0 1-.311.435l-.001.001c-.138.123-.302.22-.481.283l-.01.003a2.03 2.03 0 0 1-1.278-.004l.014.004a1.471 1.471 0 0 1-.489-.288l.001.001a1.28 1.28 0 0 1-.313-.432l-.003-.008a1.454 1.454 0 0 1 .004-1.134l-.004.01c.071-.165.178-.315.316-.442a1.45 1.45 0 0 1 .488-.277 2.003 2.003 0 0 1 1.278.004l-.014-.004c.184.065.351.162.49.286a1.296 1.296 0 0 1 .426 1zm-.436 0v-.024a1.19 1.19 0 0 0-.082-.436l.003.008a.935.935 0 0 0-.566-.548l-.007-.002a1.455 1.455 0 0 0-.928.003l.01-.003a.997.997 0 0 0-.352.214.914.914 0 0 0-.223.331l-.002.006a1.321 1.321 0 0 0 .003.911l-.003-.009c.101.261.309.46.569.547l.007.002c.296.097.622.097.918 0a.97.97 0 0 0 .35-.211.933.933 0 0 0 .222-.338c.056-.145.082-.298.079-.451zm3.71.473.043.101c.017-.036.031-.069.048-.101.019-.039.037-.072.056-.103l-.002.004 1.061-1.677c.021-.029.04-.047.061-.053s.047-.009.073-.009h.015-.001.314v2.728h-.372v-2.09a.68.68 0 0 1 0-.096v.002l-1.069 1.701a.158.158 0 0 1-.062.061h-.001a.19.19 0 0 1-.09.023h-.064a.183.183 0 0 1-.09-.023h.001a.15.15 0 0 1-.061-.061v-.001l-1.099-1.711v2.189h-.359v-2.722h.328c.026 0 .051.003.075.01h-.002c.026.011.046.03.058.053l1.084 1.678c.02.028.038.06.053.094l.001.004zm3.995-.135v1.021h-.414v-2.723h.926c.175-.003.349.018.517.059.134.034.259.091.366.17.089.07.159.16.205.262l.002.004c.05.111.073.23.071.349v.017a.755.755 0 0 1-.299.603l-.002.001a1.062 1.062 0 0 1-.368.18c-.14.04-.301.064-.468.064h-.035l-.501-.008zm0-.293h.503c.109.002.218-.013.322-.041a.69.69 0 0 0 .234-.119l-.002.001a.522.522 0 0 0 .191-.404v-.007l.001-.029a.453.453 0 0 0-.043-.195l.001.003a.529.529 0 0 0-.144-.185l-.001-.001a.888.888 0 0 0-.562-.146h.003-.503v1.122zm5.584 1.318h-.334a.15.15 0 0 1-.086-.026h.001a.161.161 0 0 1-.054-.062v-.001l-.282-.658H21.12l-.293.658a.156.156 0 0 1-.141.088h-.333l1.246-2.728h.432l1.263 2.728zm-2.057-1.013h1.172l-.494-1.11a1.875 1.875 0 0 1-.094-.256l-.048.142a.876.876 0 0 1-.046.116l-.49 1.108zm3.852-1.701a.173.173 0 0 1 .062.048l1.818 2.056v-2.117h.372v2.728h-.212a.204.204 0 0 1-.082-.017h.001a.221.221 0 0 1-.066-.05l-1.816-2.054.001.047-.002.049v-.002 2.027h-.372v-2.728h.22c.025 0 .051.005.075.013zm5.313 1.629v1.083h-.415v-1.082l-1.149-1.643h.381a.16.16 0 0 1 .081.023h-.001a.234.234 0 0 1 .056.062l.718 1.06a1.159 1.159 0 0 1 .128.241l.053-.117c.021-.043.044-.084.071-.124l.709-1.067a.293.293 0 0 1 .053-.058.137.137 0 0 1 .082-.027h.384l-1.15 1.65zm-16.893-6.219c.181.02.363.036.549.05 2.803-1.09 5.174-2.872 6.818-5.126s2.485-4.878 2.421-7.546l-3.09-2.683c.629 2.84.335 5.775-.848 8.478s-3.208 5.067-5.849 6.827z" style="fill:var(--color3, #afb1b8)"/>
            <path fill="#afb1b8" d="m12.407 24.451.083.015c2.822-1.755 4.973-4.203 6.176-7.031s1.402-5.904.571-8.83l-4.4-3.822c1.779 3.142 2.496 6.659 2.065 10.141-.43 3.482-1.989 6.786-4.495 9.528zm14.921-9.345c-.747 2.931-2.563 5.574-5.177 7.538a16.213 16.213 0 0 1-2.367 1.49l-.092.043c2.129-.543 4.085-1.504 5.718-2.808s2.901-2.917 3.703-4.714l-1.784-1.549z" style="fill:var(--color3, #afb1b8)"/>
            <path fill="#afb1b8" d="m26.628 14.674-2.54-2.207c-.049 2.517-.872 4.976-2.385 7.122s-3.66 3.902-6.217 5.084h.012c.57 0 1.139-.03 1.705-.088 2.39-.848 4.502-2.197 6.146-3.926s2.771-3.785 3.278-5.985zM12.774 3.17 9.743.534c-2.709.91-5.039 2.509-6.686 4.588S.526 9.664.518 12.188c.01 2.789 1.09 5.495 3.07 7.69 1.979 2.194 4.744 3.754 7.858 4.43 2.779-2.942 4.407-6.578 4.646-10.379s-.924-7.57-3.319-10.758zM33.63 14.268c-.011-3.308-1.528-6.478-4.221-8.818s-6.342-3.658-10.15-3.668h-.028c-1.831 0-3.59.305-5.231.867l.114-.034L32.67 18.737c.605-1.313.958-2.849.96-4.468v-.001z" style="fill:var(--color3, #afb1b8)"/>
        </symbol>
        <symbol id="icon-client4" viewBox="0 0 65 32">
            <path fill="#2196f3" d="M10.016 9.983h-.002c-1.827 0-3.308 1.316-3.308 2.94v.002c0 1.624 1.481 2.94 3.308 2.94h.002c1.827 0 3.308-1.317 3.308-2.94v-.002c0-1.624-1.481-2.941-3.308-2.941zm24.418-.939c-.005-2.255-1.016-4.418-2.81-6.012S27.398.539 24.861.534c-2.539.004-4.972.902-6.767 2.497s-2.806 3.757-2.811 6.013v12.437s19.15-1.896 19.152-12.434v-.002zM0 25.562c.005 1.57.709 3.073 1.957 4.183s2.94 1.735 4.706 1.739c1.765-.005 3.457-.63 4.706-1.739s1.952-2.613 1.957-4.181V16.91S.002 18.23.002 25.562zm6.662 1.55c-.345 0-.682-.091-.969-.261a1.617 1.617 0 0 1-.638-.686l-.004-.009a1.394 1.394 0 0 1-.097-.904l-.002.009a1.5 1.5 0 0 1 .477-.794 1.81 1.81 0 0 1 .882-.423l.011-.002a1.939 1.939 0 0 1 1.021.092l-.013-.004c.319.117.592.316.783.571s.294.555.294.861c.001.204-.043.407-.131.596a1.555 1.555 0 0 1-.376.503l-.002.001a1.77 1.77 0 0 1-.567.338 1.907 1.907 0 0 1-.668.119h-.001v-.006zm13.466-.854h-1.286v1.328h-.67v-3.251h2.117v.542h-1.447v.84h1.286v.54zm3.218-.223c0 .32-.056.6-.169.841s-.276.427-.488.558a1.32 1.32 0 0 1-.698.197h-.025.001c-.27 0-.51-.065-.722-.194a1.296 1.296 0 0 1-.487-.546l-.003-.008a1.882 1.882 0 0 1-.177-.804v-.028.001-.16c0-.32.058-.602.172-.844a1.285 1.285 0 0 1 1.212-.757c.271 0 .51.066.721.197.211.13.374.316.489.56.116.242.174.523.174.841v.145zm-.678-.148c0-.341-.061-.6-.183-.777a.596.596 0 0 0-.496-.266l-.028.001h.001l-.025-.001a.597.597 0 0 0-.494.262l-.001.002c-.122.174-.184.43-.185.768v.158c0 .331.061.589.183.772s.297.274.527.274l.026.001a.59.59 0 0 0 .49-.261l.001-.002c.12-.177.181-.434.183-.773v-.158zm2.85.846.001-.019a.34.34 0 0 0-.133-.27l-.001-.001c-.089-.069-.25-.14-.482-.214a3.473 3.473 0 0 1-.57-.232l.019.009c-.37-.2-.554-.469-.554-.806 0-.175.049-.332.147-.469a.975.975 0 0 1 .427-.324c.186-.077.395-.116.625-.116.232 0 .439.042.621.127a.97.97 0 0 1 .421.355.926.926 0 0 1 .152.522h-.67a.434.434 0 0 0-.14-.346c-.094-.084-.226-.125-.395-.125-.164 0-.291.035-.382.105a.325.325 0 0 0-.136.265v.008c0 .106.053.194.158.266.107.071.264.138.471.2.381.114.658.257.833.427s.261.381.261.634c0 .281-.107.503-.32.663s-.498.239-.859.239c-.25 0-.478-.046-.683-.137a1.11 1.11 0 0 1-.469-.373l-.002-.003a.962.962 0 0 1-.16-.533v-.022.001h.671c0 .358.214.538.643.538a.634.634 0 0 0 .373-.096.32.32 0 0 0 .134-.259v-.013.001zm3.574-1.855h-.995v2.708h-.67v-2.708h-.981v-.542h2.647v.542zm2.339 1.3h-1.285v.871h1.509v.538h-2.178v-3.251h2.174v.542h-1.505v.775h1.286v.524zm1.819.218h-.533v1.19h-.67v-3.251h1.208c.384 0 .68.086.888.257s.312.413.312.725a.996.996 0 0 1-.145.556.977.977 0 0 1-.429.35l-.006.002.702 1.328v.03h-.718l-.61-1.189zm-.533-.542h.541c.168 0 .297-.042.39-.126a.46.46 0 0 0 .139-.33l-.001-.026v.001c0-.154-.043-.274-.131-.362s-.219-.132-.4-.132h-.538v.975zm4.058.587v1.145h-.67v-3.251h1.268c.244 0 .459.045.643.134a.98.98 0 0 1 .429.382c.099.164.149.35.149.56 0 .318-.11.57-.328.754-.218.183-.519.275-.904.275h-.587zm0-.542h.598c.178 0 .312-.042.404-.125a.454.454 0 0 0 .141-.357l.001-.024a.534.534 0 0 0-.141-.363.527.527 0 0 0-.389-.152h-.614v1.021zm4.236.279h-1.285v.871h1.509v.538h-2.178v-3.251h2.174v.542h-1.505v.775h1.286v.524zm3.108-1.3h-.996v2.708h-.67v-2.708h-.982v-.542h2.648v.542zm2.339 1.3h-1.285v.871h1.509v.538h-2.179v-3.251h2.174v.542h-1.504v.775h1.285v.524zm1.819.218h-.533v1.19h-.67v-3.251h1.208c.384 0 .68.086.888.257s.312.413.312.725c0 .222-.049.408-.145.556a.982.982 0 0 1-.429.35l-.006.002.703 1.328v.03h-.718l-.61-1.189zm-.533-.542h.54c.168 0 .298-.042.39-.126a.46.46 0 0 0 .139-.331l-.001-.025v.001a.484.484 0 0 0-.132-.362c-.086-.088-.219-.132-.399-.132h-.538v.975zm3.935.88.001-.019a.34.34 0 0 0-.134-.271l-.001-.001c-.089-.069-.25-.14-.482-.214a3.473 3.473 0 0 1-.57-.232l.019.009c-.37-.2-.554-.469-.554-.806 0-.175.05-.332.147-.469a.975.975 0 0 1 .427-.324c.186-.077.395-.116.625-.116.232 0 .439.042.621.127a.97.97 0 0 1 .421.355.926.926 0 0 1 .152.522h-.67a.434.434 0 0 0-.14-.346c-.094-.084-.226-.125-.395-.125-.164 0-.291.035-.382.105a.326.326 0 0 0-.137.265v.007c0 .106.053.194.159.266s.264.138.471.2c.381.114.658.257.833.427s.261.381.261.634c0 .281-.107.503-.32.663s-.499.239-.859.239c-.25 0-.478-.046-.683-.137a1.11 1.11 0 0 1-.469-.373l-.002-.003a.962.962 0 0 1-.16-.533v-.022.001h.671c0 .358.214.538.643.538a.634.634 0 0 0 .373-.096.317.317 0 0 0 .134-.26v-.013.001z" style="fill:var(--color2, #2196f3)"/>
        </symbol>
        <symbol id="icon-client5" viewBox="0 0 43 32">
            <path fill="#afb1b8" d="M3.239 26.373a.98.98 0 0 1 .25.665.964.964 0 0 1-.092.466l.003-.006a1.057 1.057 0 0 1-.296.378l-.002.002a1.776 1.776 0 0 1-1.13.306h.006H.001V23.97h1.936a1.76 1.76 0 0 1 1.08.283l-.007-.004a.981.981 0 0 1 .289.354.893.893 0 0 1 .086.436.92.92 0 0 1-.225.644c-.15.168-.358.283-.59.33.262.044.499.172.667.361zM.92 25.737h.828a.843.843 0 0 0 .526-.14.516.516 0 0 0 .14-.184l.001-.003a.46.46 0 0 0 .038-.185l-.002-.042v.002l.001-.036a.467.467 0 0 0-.04-.191l.001.003a.51.51 0 0 0-.138-.187l-.001-.001a.845.845 0 0 0-.545-.142h.003-.815v1.106zm1.435 1.616a.527.527 0 0 0 .151-.19l.001-.003a.472.472 0 0 0 .044-.202l-.001-.035v.002l.001-.031a.49.49 0 0 0-.047-.21l.001.003a.534.534 0 0 0-.154-.193l-.001-.001a.898.898 0 0 0-.565-.152h.003H.92v1.16h.88a.94.94 0 0 0 .556-.146zm4.842.832-1.076-1.648h-.405v1.648h-.927V23.97h1.755a1.824 1.824 0 0 1 1.225.362l-.005-.003a1.293 1.293 0 0 1 .42.938c0 .307-.109.589-.291.808l.002-.002a1.461 1.461 0 0 1-.829.427l-.008.001 1.147 1.684H7.197zm-1.482-2.222h.758c.526 0 .79-.212.79-.638l.001-.034a.58.58 0 0 0-.045-.225l.001.004a.628.628 0 0 0-.15-.218.865.865 0 0 0-.6-.171h.003-.767l.009 1.283zm6.547 1.373h-1.846l-.326.849h-.972l1.695-4.168h1.051l1.689 4.168h-.971l-.319-.848zm-.247-.638-.675-1.779-.675 1.779h1.349zm6.587 1.487h-.919l-2.063-2.866v2.866h-.918v-4.216h.918l2.063 2.883v-2.883h.919v4.216zm5.25-1.009c-.191.318-.48.577-.833.744a2.883 2.883 0 0 1-1.219.267l-.079-.001h.004-1.637v-4.215h1.637l.077-.001c.441 0 .859.096 1.235.267l-.019-.008c.352.163.642.419.832.735.189.343.288.722.288 1.106s-.099.763-.288 1.106zm-1.052-.101c.25-.261.404-.616.406-1.006 0-.369-.144-.726-.406-1.006a1.681 1.681 0 0 0-1.157-.358h.005-.639v2.729h.639a1.69 1.69 0 0 0 1.156-.361l-.004.003zM12.838.522s11.873 4.104 11.621 10.043V20.61s-11.864-4.106-11.617-10.045L12.838.522zm22.199 17.737a17.218 17.218 0 0 1 7.544-2.545v-3.146c-3.12 1.102-5.767 3.098-7.544 5.691z" style="fill:var(--color3, #afb1b8)"/>
            <path fill="#afb1b8" d="M33.69 19.207c1.835-3.384 5.017-5.995 8.891-7.297V2.849S25.672 8.695 26.029 17.153v14.302s.754-.261 1.939-.752c0-.457 0-.918.054-1.382.349-3.926 2.388-7.564 5.667-10.115z" style="fill:var(--color3, #afb1b8)"/>
            <path fill="#afb1b8" d="M32.082 24.52a13.62 13.62 0 0 1 .592-2.928c-2.043 2.203-3.279 4.936-3.536 7.816-.025.272-.039.543-.045.824a47.103 47.103 0 0 0 3.524-1.703l-.273.133a13.57 13.57 0 0 1-.263-4.142zm.672.051a13.013 13.013 0 0 0 .224 3.835l-.015-.084c4.62-2.531 9.811-6.442 9.61-11.168v-.412c-3.301.338-6.388 1.659-8.79 3.76a12.808 12.808 0 0 0-1.026 4.019l-.004.051z" style="fill:var(--color3, #afb1b8)"/>
        </symbol>
        <symbol id="icon-client6" viewBox="0 0 67 32">
            <path fill="#afb1b8" d="M33.724 15.223a2.084 2.084 0 0 1-.43-1.42v.006-2.051c0-.628.142-1.106.428-1.433.284-.327.774-.489 1.468-.488.652 0 1.116.139 1.389.417.299.355.444.789.411 1.226v.482h-1.166v-.489a2.465 2.465 0 0 0-.034-.477.464.464 0 0 0-.166-.283l-.001-.001a.672.672 0 0 0-.373-.112l-.052.002h.002a.712.712 0 0 0-.447.118l.003-.002a.546.546 0 0 0-.193.309l-.001.004c-.03.14-.047.302-.047.467v.042-.002 2.488c-.019.24.033.48.149.698a.55.55 0 0 0 .23.168l.004.001a.633.633 0 0 0 .305.039H35.2a.63.63 0 0 0 .414-.114l-.002.001a.503.503 0 0 0 .174-.299v-.003c.027-.165.04-.332.036-.498v-.505h1.167v.461a1.866 1.866 0 0 1-.406 1.293l.003-.004c-.268.304-.725.457-1.397.457s-1.179-.163-1.466-.501zm4.859.022c-.295-.32-.442-.784-.442-1.399v-2.157c0-.609.147-1.07.442-1.383s.787-.469 1.478-.467c.686 0 1.176.156 1.471.467.294.313.444.774.444 1.383v2.156c0 .609-.149 1.077-.449 1.398s-.787.481-1.466.481-1.181-.163-1.479-.479zm2.021-.518c.106-.199.154-.419.14-.638v-2.641a1.18 1.18 0 0 0-.14-.632l.003.006a.558.558 0 0 0-.234-.17l-.004-.001a.622.622 0 0 0-.312-.037h.003a.643.643 0 0 0-.313.038l.004-.002a.569.569 0 0 0-.239.171l-.001.001c-.107.195-.154.41-.14.626V14.1c-.014.22.033.439.14.639a.732.732 0 0 0 .246.158.832.832 0 0 0 .605-.002l-.006.002a.723.723 0 0 0 .246-.158v-.013zm2.777-4.825h1.256l.944 3.979.967-3.979h1.222l.124 5.743h-.904l-.097-3.991-.932 3.991h-.725l-.966-4.006-.09 4.006h-.913l.114-5.743zm5.92 0h1.957c1.127 0 1.691.543 1.691 1.631 0 1.041-.594 1.562-1.781 1.56h-.666v2.552h-1.208l.007-5.744zm1.672 2.454a.93.93 0 0 0 .665-.182.928.928 0 0 0 .174-.649l.001-.063c0-.163-.022-.321-.062-.471l.003.013a.43.43 0 0 0-.089-.158.502.502 0 0 0-.149-.114l-.003-.001a1.24 1.24 0 0 0-.476-.094l-.066.002h.003-.469v1.717h.469zm3.719-2.454h1.297l1.331 5.743h-1.126l-.263-1.324h-1.157l-.27 1.324h-1.143l1.331-5.743zm1.108 3.753-.452-2.411-.452 2.411h.903zm2.594-3.753h.846l1.618 3.276V9.902h1.003v5.743h-.804l-1.628-3.42v3.42h-1.036l.002-5.743zm5.815 3.552-1.345-3.545h1.133l.821 2.278.77-2.278h1.109l-1.329 3.546v2.19h-1.159v-2.19zM35.59 18.156v.3h-.986v2.334h-.413v-2.334H33.2v-.3h2.389zm3.089 2.634h-.328a.141.141 0 0 1-.081-.025.137.137 0 0 1-.052-.06v-.001l-.285-.626h-1.367l-.284.626a.168.168 0 0 1-.044.071.144.144 0 0 1-.082.025h-.326l1.208-2.634h.42l1.223 2.624zm-2-.978h1.14l-.484-1.072a1.765 1.765 0 0 1-.086-.235l-.003-.014-.045.14-.044.11-.478 1.07zm4.083.719c.076.004.151.004.228 0a1.41 1.41 0 0 0 .193-.031c.059-.012.117-.028.174-.048.053-.018.107-.042.161-.065v-.592h-.487a.095.095 0 0 1-.061-.022.06.06 0 0 1-.018-.021.048.048 0 0 1-.006-.024V19.523h.937v1.01a1.792 1.792 0 0 1-.496.211l-.013.003c-.1.026-.2.043-.302.055a3.774 3.774 0 0 1-.353.016h-.015c-.212 0-.416-.036-.606-.102l.013.004a1.499 1.499 0 0 1-.486-.277l.002.002a1.276 1.276 0 0 1-.308-.409l-.003-.008a1.3 1.3 0 0 1-.111-.529v-.019.001-.016c0-.193.04-.377.112-.543l-.003.009c.069-.156.176-.299.311-.417.138-.119.302-.211.484-.273.206-.068.427-.101.647-.098.112 0 .225.007.336.023a1.62 1.62 0 0 1 .529.172c.074.041.144.087.211.137l-.116.163a.101.101 0 0 1-.039.035h-.001a.112.112 0 0 1-.055.014.156.156 0 0 1-.075-.021h.001a1.595 1.595 0 0 1-.126-.066l.007.004a1.098 1.098 0 0 0-.154-.069l-.008-.002a1.522 1.522 0 0 0-.213-.057l-.009-.001a1.749 1.749 0 0 0-.29-.023h-.017.001-.015c-.162 0-.317.027-.462.076l.01-.003a1.022 1.022 0 0 0-.356.208.944.944 0 0 0-.222.321l-.002.006a1.234 1.234 0 0 0 .003.887l-.003-.008a.938.938 0 0 0 .242.332c.099.09.219.161.352.208.154.046.316.063.479.052zm3.85-.041h1.319v.3h-1.722v-2.634h.412l-.009 2.334zm2.691.3h-.412v-2.634h.412v2.634zm1.537-2.621a.2.2 0 0 1 .063.047l1.766 1.985-.002-.047.002-.049v.002-1.963h.36v2.645h-.222a.196.196 0 0 1-.077-.016h.001a.23.23 0 0 1-.065-.05l-1.764-1.984v2.048h-.346v-2.634h.215c.023 0 .047.004.068.012zm5.23-.013v.289h-1.463v.87h1.186v.279h-1.186v.9h1.463v.289h-1.889v-2.628h1.889zM10.782 1.889l18.343 4.496v15.757l-18.343-4.494V1.888zM9.605.545v17.868l20.693 5.075V5.622L9.605.546z" style="fill:var(--color3, #afb1b8)"/>
            <path fill="#afb1b8" d="M20.696 31.781 0 26.702V8.837l20.696 5.077v17.867z" style="fill:var(--color3, #afb1b8)"/>
            <path fill="#afb1b8" d="m9.948 1.686 18.103 4.44-7.698 6.649L2.246 8.333l7.702-6.647zM9.605.545 0 8.837l20.696 5.077 9.603-8.294L9.606.545zM21.86 30.776l8.439-7.288-8.439-2.069v9.358z" style="fill:var(--color3, #afb1b8)"/>
        </symbol>
        <symbol id="icon-envelope1" viewBox="0 0 43 32">
            <path fill="#757575" d="M38.667 0H4C1.795 0 0 1.795 0 4v24c0 2.205 1.795 4 4 4h34.667c2.205 0 4-1.795 4-4V4c0-2.205-1.795-4-4-4zm0 2.667c.181 0 .355.037.512.104L21.334 18.238 3.489 2.771c.151-.065.327-.104.512-.104h34.667zm0 26.666H4A1.333 1.333 0 0 1 2.667 28V5.587l17.792 15.421c.233.203.539.327.875.327s.642-.124.876-.328l-.002.001L40 5.587V28c0 .736-.597 1.333-1.333 1.333z" style="fill:var(--color4, #757575)"/>
        </symbol>
        <symbol id="icon-facebook-1" viewBox="0 0 32 32">
            <path fill="#afb1b8" d="M21.328 5.312h2.923V.224A36.483 36.483 0 0 0 20.143 0h-.156.008c-4.213 0-7.099 2.65-7.099 7.52V12H8.25v5.688h4.646V32h5.699V17.69h4.459l.707-5.688h-5.168V8.08c0-1.643.443-2.768 2.734-2.768z" style="fill:var(--color3, #afb1b8)"/>
        </symbol>
        <symbol id="icon-facebook-2" viewBox="0 0 32 32">
            <path fill="#fff" d="M21.328 5.312h2.923V.224A36.478 36.478 0 0 0 20.144 0h-.157.008c-4.213 0-7.099 2.65-7.099 7.52V12H8.25v5.688h4.646V32h5.699V17.69h4.459l.709-5.688h-5.17V8.08c0-1.643.443-2.768 2.734-2.768z" style="fill:var(--color5, #fff)"/>
        </symbol>
        <symbol id="icon-Group-1" viewBox="0 0 72 32">
            <path fill="#f5f4fa" d="M1.067 0h69.867c.589 0 1.067.478 1.067 1.067v29.867c0 .589-.478 1.067-1.067 1.067H1.067A1.067 1.067 0 0 1 0 30.934V1.067C0 .478.478 0 1.067 0z" style="fill:var(--color6, #f5f4fa)"/>
            <path fill="#212121" d="m44.618 19.557-4.925-4.961.547-2.693c.131.053.283.084.442.085h.019a1.259 1.259 0 1 0-1.183-.828l-.003-.009-2.893.353-4.719-4.744a.308.308 0 0 0-.22-.093.312.312 0 0 0-.218.091l-.882.877a.31.31 0 0 0 0 .44l.475.481a8.716 8.716 0 0 0 1.47 10.303.302.302 0 0 0 .085.057 1.67 1.67 0 0 0-.03.319v3.61H28.85a1.558 1.558 0 0 0-1.556 1.555v.622a.31.31 0 0 0 .311.311h14.311a.31.31 0 0 0 .311-.311V24.4a1.557 1.557 0 0 0-1.555-1.555h-3.733v-1.599a8.632 8.632 0 0 0 5.93-.876l-.045.023.477.48a.309.309 0 0 0 .438.002l.882-.877a.31.31 0 0 0 0-.44zm-4.371-9.254a.62.62 0 0 1 1.06.442.621.621 0 0 1-.621.622h-.002a.623.623 0 0 1-.436-1.063h-.001zm-.733 2.044-.349 1.718-.686-.69 1.035-1.029zm-.353-.526-1.12 1.114-.866-.871 1.986-.242zm1.508 11.646c.515 0 .933.418.933.933v.311H27.913V24.4c0-.515.418-.933.933-.933h11.822zm-4.355-1.245v.622h-3.111v-.622h3.111zm-3.112-.622v-2.365c0-.755.698-1.369 1.555-1.369s1.556.614 1.556 1.369V21.6h-3.111zm3.734-.989v-1.375c0-1.098-.977-1.991-2.178-1.991h-.034c-.789 0-1.482.412-1.875 1.033l-.005.009a8.062 8.062 0 0 1-2.223-5.57c0-1.35.331-2.623.915-3.742l-.021.045 10.851 10.913a7.955 7.955 0 0 1-3.655.876 8.1 8.1 0 0 1-1.829-.208l.054.011zm6.585-.399L31.238 7.857l.44-.439 4.629 4.655c.002 0 .003.004.006.006l7.65 7.695-.441.439z" style="fill:var(--color1, #212121)"/>
            <path fill="#2196f3" d="M34.761 18.489h-.004a.933.933 0 0 0-.001 1.866h.004a.933.933 0 0 0 .001-1.866zm.217 1.154a.31.31 0 1 1-.438-.442.312.312 0 0 1 .218-.091.312.312 0 0 1 .218.532h.003z" style="fill:var(--color2, #2196f3)"/>
        </symbol>
        <symbol id="icon-Group-2" viewBox="0 0 72 32">
            <path fill="#f5f4fa" d="M1.067 0h69.867c.589 0 1.067.478 1.067 1.067v29.867c0 .589-.478 1.067-1.067 1.067H1.067A1.067 1.067 0 0 1 0 30.934V1.067C0 .478.478 0 1.067 0z" style="fill:var(--color6, #f5f4fa)"/>
            <path fill="#212121" d="M44.923 15.592c-.001-4.931-3.999-8.927-8.93-8.926s-8.927 3.999-8.926 8.93a8.932 8.932 0 0 0 6.149 8.485l.063.018a.394.394 0 0 0 .309-.038.37.37 0 0 0 .165-.208l2.255-7.146a1.115 1.115 0 0 0 1.11-1.115v-.006a1.115 1.115 0 0 0-1.116-1.11h-.006a1.096 1.096 0 0 0-.485.115l.006-.003-2.978-2.979a.373.373 0 0 0-.63.268c0 .1.04.191.104.258l2.977 2.98a1.094 1.094 0 0 0 .31 1.345l.002.002-2.148 6.809a8.192 8.192 0 1 1 10.519-4.856 8.243 8.243 0 0 1-4.301 4.631l-.051.021-.232-1.093a.373.373 0 0 0-.612-.2l-2.238 1.998a.37.37 0 0 0 .132.632l.003.001 2.858.912a.373.373 0 0 0 .486-.354.344.344 0 0 0-.009-.08v.002l-.228-1.073c3.224-1.385 5.442-4.533 5.442-8.2v-.02.001zm-8.928-.371a.373.373 0 0 1 0 .744.373.373 0 0 1 0-.744zm1.226 8.67 1.274-1.137.352 1.657-1.626-.52z" style="fill:var(--color1, #212121)"/>
            <path fill="#2196f3" d="M35.623 8.525v.744a.373.373 0 0 0 .744 0v-.744a.373.373 0 0 0-.744 0zm-6.695 6.696a.373.373 0 0 0 0 .744h.744a.373.373 0 0 0 0-.744h-.744zm14.135.744a.373.373 0 0 0 0-.744h-.744a.373.373 0 0 0 0 .744h.744z" style="fill:var(--color2, #2196f3)"/>
        </symbol>
        <symbol id="icon-Group-3" viewBox="0 0 72 32">
            <path fill="#f5f4fa" d="M1.067 0h69.867c.589 0 1.067.478 1.067 1.067v29.867c0 .589-.478 1.067-1.067 1.067H1.067A1.067 1.067 0 0 1 0 30.934V1.067C0 .478.478 0 1.067 0z" style="fill:var(--color6, #f5f4fa)"/>
            <path fill="#2196f3" d="M35.373 15.396h.622v2.799h-.622v-2.799zm2.488 1.244h.622v1.555h-.622V16.64zm-4.975.933h.622v.622h-.622v-.622zm-1.866-.311h.622v.933h-.622v-.933z" style="fill:var(--color2, #2196f3)"/>
            <path fill="#212121" d="M27.599 23.17h14.926a.933.933 0 0 0 .933-.933v-1.244a.933.933 0 0 0-.933-.933h-.311v-7.755l1.766-1.673a.938.938 0 1 0-.433-.439l-.002-.006-1.331 1.262v-.717a.933.933 0 0 0-.933-.933H28.843a.933.933 0 0 0-.933.933v9.329h-.311a.933.933 0 0 0-.933.933v1.244c0 .515.418.933.933.933zM44.391 9.488a.31.31 0 1 1 0 .622.31.31 0 1 1 0-.622zm-15.859 1.244a.31.31 0 0 1 .311-.311h12.438a.31.31 0 0 1 .311.311v1.306l-.622.591v-1.275a.31.31 0 0 0-.311-.311H29.465a.31.31 0 0 0-.311.311v7.774a.31.31 0 0 0 .311.311h11.194a.311.311 0 0 0 .311-.311v-5.643l.622-.589v7.165h-13.06v-9.328zm2.799 4.042h-.003a.933.933 0 1 0 .649 1.603l1.081.542a.31.31 0 0 0 .371-.071l2.298-2.585 2.259 1.693a.31.31 0 0 0 .4-.023l1.963-1.859v4.743H29.777v-7.152h10.572v1.552l-2.2 2.083-2.278-1.707a.31.31 0 0 0-.419.042l-2.329 2.621-.871-.435a.899.899 0 0 0 .012-.111v-.002a.933.933 0 0 0-.933-.933zm.311.933a.31.31 0 1 1-.622 0 .31.31 0 1 1 .622 0zm1.865 4.975h3.11v.311a.31.31 0 0 1-.311.311h-2.488a.31.31 0 0 1-.311-.311v-.311zm-6.218.311a.31.31 0 0 1 .311-.311h5.286v.311c0 .515.418.933.933.933h2.488a.933.933 0 0 0 .933-.933v-.311h5.286a.31.31 0 0 1 .311.311v1.244a.31.31 0 0 1-.311.311H27.6a.31.31 0 0 1-.311-.311v-1.244z" style="fill:var(--color1, #212121)"/>
        </symbol>
        <symbol id="icon-Group-4" viewBox="0 0 72 32">
            <path fill="#f5f4fa" d="M1.067 0h69.867c.589 0 1.067.478 1.067 1.067v29.867c0 .589-.478 1.067-1.067 1.067H1.067A1.067 1.067 0 0 1 0 30.934V1.067C0 .478.478 0 1.067 0z" style="fill:var(--color6, #f5f4fa)"/>
            <path fill="#2196f3" d="M45.318 9.306a.312.312 0 0 0-.249-.211h-.002l-1.114-.162-.499-1.01c-.105-.213-.453-.213-.558 0l-.499 1.01-1.115.162a.31.31 0 0 0-.173.531l.807.786-.19 1.11a.311.311 0 0 0 .451.328l.997-.525.997.524a.314.314 0 0 0 .329-.024l-.001.001a.307.307 0 0 0 .123-.304l-.19-1.11.807-.786a.312.312 0 0 0 .078-.321l.001.002zm-1.436.774a.309.309 0 0 0-.089.278v-.002l.111.65-.583-.307a.305.305 0 0 0-.292.001l.002-.001-.583.307.111-.65a.308.308 0 0 0-.089-.275l-.473-.461.653-.095a.31.31 0 0 0 .234-.17l.292-.591.292.591a.31.31 0 0 0 .234.17l.653.095-.472.461zm-1.971 8.558h-.622v.622h.622v-.622zm0 1.245h-.622v.622h.622v-.622zm.622-.623h-.622v.622h.622v-.622zm-1.244 0h-.622v.622h.622v-.622zm-1.556 2.8h-.622v.622h.622v-.622zm0 1.245h-.622v.622h.622v-.622zm.623-.622h-.622v.622h.622v-.622zm-1.245 0h-.622v.622h.622v-.622zM36 20.816h-.622v.622H36v-.622zm0 1.244h-.622v.622H36v-.622zm.622-.622H36v.622h.622v-.622zm-1.244 0h-.622v.622h.622v-.622zm-5.289-11.2h-.622v.622h.622v-.622zm0 1.244h-.622v.622h.622v-.622zm.622-.622h-.622v.622h.622v-.622zm-1.244 0h-.622v.622h.622v-.622z" style="fill:var(--color2, #2196f3)"/>
            <path fill="#212121" d="M41.084 14.926a1.033 1.033 0 0 0-.688-.41l-.005-.001a1.03 1.03 0 0 0-.784.207l.002-.002-.73.56-1.107.827-.792-.316a4.046 4.046 0 0 0 2.4-3.687c0-2.23-1.822-4.045-4.061-4.045s-4.061 1.814-4.061 4.045c0 .808.242 1.56.653 2.193l-1.615-.014c-.005 0-.009.003-.014.003a.314.314 0 0 0-.093.019l.002-.001c-.007.003-.015.004-.022.008a.049.049 0 0 0-.011.004l-1.886.931-.001.001-1.104.531a.232.232 0 0 0-.038.021l.001-.001a1.04 1.04 0 0 0-.347 1.345l-.003-.006c.128.247.346.433.609.516l.007.002a1.035 1.035 0 0 0 .809-.078l-.005.003.81-.43 1.321-.682.791-.005-3.956 3.937a.96.96 0 0 0-.286.685v.004a.97.97 0 0 0 .972.969h.002c.25 0 .498-.094.689-.283l.767-.763 1.015-.758.525.523-1.809 1.802a.958.958 0 0 0-.286.685v.003a.973.973 0 0 0 .973.971h.001a.974.974 0 0 0 .689-.283l2.618-2.609c.004-.004.009-.005.013-.009l3.013-3.301 2.025.288a.312.312 0 0 0 .153-.019l.029-.014c.011-.006.023-.009.034-.016l1.874-1.244c.007-.005.011-.012.017-.017.007-.006.017-.008.024-.015l.742-.695a1.034 1.034 0 0 0 .122-1.38l.002.003zm-13.175 2.107a.404.404 0 0 1-.329.029l.003.001a.418.418 0 0 1-.125-.734l.001-.001.766-.369.185.539.077.227-.579.307zm2.04-1.067-.903.467-.149-.435-.107-.313 1.182-.584-.023.866zm8.808-3.861c0 .536-.128 1.041-.349 1.493l-2.439-1.108a1.086 1.086 0 0 0-.456-.807l-.003-.002.854-2.835a3.429 3.429 0 0 1 2.394 3.26zm-6.876 0a3.434 3.434 0 0 1 3.438-3.422c.147 0 .292.013.435.031l-.835 2.773-.033-.003c-.602 0-1.093.488-1.093 1.089s.49 1.089 1.093 1.089c.405 0 .755-.223.944-.551l2.253 1.024a3.439 3.439 0 0 1-6.201-2.028zm3.474.466a.47.47 0 0 1-.47.467h-.001a.47.47 0 0 1-.469-.467.47.47 0 0 1 .94 0zm-7.25 8.764a.355.355 0 0 1-.498.001.344.344 0 0 1 0-.492l.561-.559.497.494-.559.557zm1.874 2.178a.355.355 0 0 1-.498.001.344.344 0 0 1 0-.492l.562-.559.497.494-.56.557zm2.031-2.023-.001.001-1.03 1.027-.497-.494 1.03-1.025a.292.292 0 0 0 .052-.079c.004-.008.012-.015.015-.023.01-.024.011-.05.015-.075.002-.014.008-.028.008-.043 0-.021-.007-.041-.012-.061-.004-.019-.004-.038-.011-.056a.324.324 0 0 0-.053-.081c-.006-.007-.008-.015-.015-.022h-.001l-.001-.001-.937-.933c-.01-.01-.023-.014-.034-.023a.35.35 0 0 0-.049-.033l-.002-.001a.253.253 0 0 0-.053-.018h-.002a.257.257 0 0 0-.059-.012H30.359a.325.325 0 0 0-.044.003h.002c-.021.003-.041.005-.061.012s-.037.016-.055.026c-.012.006-.025.009-.035.017l-1.035.772-.525-.523 1.399-1.392 2.543 2.502-.541.536zm3.978-4.093c-.009-.001-.017.002-.026.002h-.016a.305.305 0 0 0-.105.018l.002-.001a.275.275 0 0 0-.057.028l.001-.001a.343.343 0 0 0-.049.036c-.007.006-.017.01-.023.017l-2.741 3.002-2.525-2.483 1.653-1.644a.31.31 0 0 0-.22-.531h-.002l-1.294.007.016-.938 1.811.015a4.044 4.044 0 0 0 2.904 1.226h.002c.255 0 .504-.027.746-.071a.294.294 0 0 0 .075.049l1.406.56.089.442.104.517-1.752-.249zm2.357.104-.182-.909.844-.63.221.293.331.44-1.214.806zm2.19-1.652-.489.458-.543-.721.485-.372a.425.425 0 0 1 .597.083.415.415 0 0 1-.05.552z" style="fill:var(--color1, #212121)"/>
            <path fill="#212121" d="m34.601 17.484-1.25-1.245a.31.31 0 0 0-.438 0l-1.25 1.245a.315.315 0 0 0 0 .442l1.25 1.245a.31.31 0 0 0 .438 0l1.25-1.245a.31.31 0 0 0 0-.442zm-1.469 1.026-.809-.805.809-.806.809.805-.809.805zm3.547-8.885-.15.604c.041.01 1.014.263 1.014 1.253h.622c0-1.177-.972-1.73-1.486-1.858zm1.486 2.48h-.622v.622h.622v-.622z" style="fill:var(--color1, #212121)"/>
        </symbol>
        <symbol id="icon-instagram-1" viewBox="0 0 32 32">
            <path fill="#afb1b8" d="M27.406 6.72c-.053-1.215-.249-2.049-.53-2.773a5.604 5.604 0 0 0-1.321-2.026l-.001-.001A5.642 5.642 0 0 0 23.57.615l-.038-.013c-.728-.281-1.558-.477-2.773-.53C19.536.014 19.148 0 16.044 0c-3.103 0-3.491.014-4.711.067-1.214.053-2.049.249-2.771.53a5.621 5.621 0 0 0-2.028 1.321l-.001.001a5.654 5.654 0 0 0-1.304 1.984l-.013.038c-.282.728-.478 1.558-.531 2.773-.058 1.223-.072 1.611-.072 4.715 0 3.103.014 3.491.067 4.711.054 1.215.25 2.049.531 2.773a5.685 5.685 0 0 0 1.32 2.027l.001.001a5.618 5.618 0 0 0 2.023 1.317c.728.282 1.559.479 2.773.531 1.219.054 1.608.067 4.711.067 3.104 0 3.493-.014 4.711-.067 1.215-.053 2.049-.249 2.773-.53a5.878 5.878 0 0 0 3.331-3.306l.014-.04c.281-.728.478-1.559.531-2.773.054-1.219.066-1.608.066-4.711s-.005-3.491-.057-4.711zm-2.057 9.333c-.05 1.117-.238 1.719-.393 2.121a3.81 3.81 0 0 1-2.146 2.16l-.026.009c-.4.157-1.008.344-2.12.393-1.206.054-1.567.067-4.617.067-3.049 0-3.416-.014-4.617-.067-1.117-.049-1.719-.237-2.121-.393a3.526 3.526 0 0 1-1.311-.852l-.001-.001a3.57 3.57 0 0 1-.846-1.288l-.008-.024c-.155-.402-.343-1.009-.392-2.121-.054-1.206-.067-1.568-.067-4.617 0-3.05.014-3.417.067-4.617.049-1.117.237-1.719.392-2.121.192-.516.484-.955.856-1.312L8 3.389c.36-.369.799-.66 1.29-.845l.024-.008c.4-.157 1.008-.343 2.12-.393 1.206-.053 1.567-.066 4.617-.066 3.054 0 3.416.014 4.617.066 1.117.049 1.719.237 2.121.393a3.51 3.51 0 0 1 1.312.853c.379.371.67.817.854 1.314.155.4.343 1.008.392 2.12.054 1.206.067 1.567.067 4.617 0 3.049-.014 3.406-.067 4.613z" style="fill:var(--color3, #afb1b8)"/>
            <path fill="#afb1b8" d="M16.042 5.559a5.874 5.874 0 0 0-5.871 5.872v.001a5.873 5.873 0 1 0 5.873-5.873h-.001zm0 9.68a3.81 3.81 0 0 1 0-7.618h.001a3.81 3.81 0 0 1 0 7.62zm7.476-9.912a1.371 1.371 0 0 1-2.742 0 1.371 1.371 0 0 1 2.742 0z" style="fill:var(--color3, #afb1b8)"/>
        </symbol>
        <symbol id="icon-instagram-2" viewBox="0 0 32 32">
            <path fill="#fff" d="M31.968 9.408c-.074-1.701-.349-2.869-.742-3.882a7.839 7.839 0 0 0-1.85-2.837l-.001-.001A7.906 7.906 0 0 0 26.597.861l-.054-.018C25.524.449 24.362.176 22.661.101 20.949.019 20.405 0 16.059 0c-4.344 0-4.888.019-6.595.094-1.699.074-2.869.349-3.88.742a7.847 7.847 0 0 0-2.839 1.85l-.001.001A7.9 7.9 0 0 0 .919 5.465l-.018.054C.506 6.538.232 7.7.157 9.401c-.082 1.712-.101 2.256-.101 6.602 0 4.344.019 4.888.094 6.595.075 1.701.35 2.869.744 3.882a7.915 7.915 0 0 0 1.849 2.837l.001.001c.8.813 1.77 1.443 2.832 1.843 1.019.395 2.182.67 3.882.744 1.707.075 2.251.094 6.595.094 4.346 0 4.89-.019 6.595-.094 1.701-.074 2.869-.349 3.882-.742a8.237 8.237 0 0 0 4.664-4.628l.019-.055c.394-1.019.669-2.182.744-3.882.075-1.707.093-2.251.093-6.595s-.006-4.888-.08-6.595zm-2.88 13.066c-.07 1.563-.333 2.406-.55 2.97a5.341 5.341 0 0 1-3.004 3.024l-.036.012c-.56.219-1.411.482-2.968.55-1.688.075-2.194.094-6.464.094-4.269 0-4.782-.019-6.464-.094-1.563-.069-2.406-.331-2.97-.55a4.953 4.953 0 0 1-1.836-1.192l-.001-.001a4.978 4.978 0 0 1-1.184-1.803L3.6 25.45c-.218-.563-.48-1.413-.549-2.97-.075-1.688-.094-2.195-.094-6.464 0-4.27.019-4.784.094-6.464.069-1.563.331-2.406.549-2.97a4.897 4.897 0 0 1 1.198-1.837l.002-.002a4.972 4.972 0 0 1 1.806-1.182l.034-.011c.56-.219 1.411-.48 2.968-.55 1.688-.074 2.195-.093 6.464-.093 4.275 0 4.782.019 6.464.093 1.563.069 2.406.331 2.97.55a4.91 4.91 0 0 1 1.837 1.194c.531.52.938 1.144 1.195 1.84.218.56.48 1.411.549 2.968.075 1.688.094 2.194.094 6.464 0 4.269-.019 4.768-.094 6.458z" style="fill:var(--color5, #fff)"/>
            <path fill="#fff" d="M16.059 7.782a8.223 8.223 0 0 0-8.219 8.221v.002a8.222 8.222 0 1 0 16.444 0 8.222 8.222 0 0 0-8.222-8.222h-.002zm0 13.552a5.333 5.333 0 0 1 .001-10.666h.001a5.334 5.334 0 1 1 0 10.668zM26.525 7.458a1.92 1.92 0 0 1-3.84 0 1.92 1.92 0 0 1 3.84 0z" style="fill:var(--color5, #fff)"/>
        </symbol>
        <symbol id="icon-linkedin-1" viewBox="0 0 32 32">
            <path fill="#afb1b8" d="M31.992 32H32V20.262c0-5.741-1.237-10.163-7.947-10.163-3.227 0-5.392 1.77-6.277 3.45h-.093v-2.914h-6.365v21.363h6.627V21.42c0-2.786.528-5.48 3.978-5.48 3.398 0 3.448 3.179 3.448 5.658V32h6.621zM.528 10.635h6.635V32H.528V10.635zM3.843 0A3.843 3.843 0 0 0 0 3.843c0 2.12 1.722 3.878 3.843 3.878 2.12 0 3.842-1.757 3.842-3.878S5.965.002 3.844 0z" style="fill:var(--color3, #afb1b8)"/>
        </symbol>
        <symbol id="icon-linkedin-2" viewBox="0 0 32 32">
            <path fill="#fff" d="M31.992 32H32V20.262c0-5.741-1.237-10.163-7.947-10.163-3.227 0-5.392 1.77-6.277 3.45h-.093v-2.914h-6.365v21.363h6.627V21.42c0-2.786.528-5.48 3.978-5.48 3.398 0 3.448 3.179 3.448 5.658V32h6.621zM.528 10.635h6.635V32H.528V10.635zM3.843 0A3.843 3.843 0 0 0 0 3.843c0 2.12 1.722 3.878 3.843 3.878 2.12 0 3.842-1.757 3.842-3.878S5.965.002 3.844 0z" style="fill:var(--color5, #fff)"/>
        </symbol>
        <symbol id="icon-smartphone1" viewBox="0 0 20 32">
            <path fill="#757575" d="M17 0H3C1.346 0 0 1.346 0 3v26c0 1.654 1.346 3 3 3h14c1.654 0 3-1.346 3-3V3c0-1.654-1.346-3-3-3zM3 2h14a1 1 0 0 1 1 1v21H2V3a1 1 0 0 1 1-1zm14 28H3a1 1 0 0 1-1-1v-3h16v3a1 1 0 0 1-1 1z" style="fill:var(--color4, #757575)"/>
            <path fill="#757575" d="M4.708 27.478a.889.889 0 0 1 .001 1.319l-.001.001a1.048 1.048 0 0 1-1.417 0l.001.001a.889.889 0 0 1-.001-1.319l.001-.001a1.048 1.048 0 0 1 1.417 0l-.001-.001z" style="fill:var(--color4, #757575)"/>
        </symbol>
        <symbol id="icon-twitter-1" viewBox="0 0 32 32">
            <path fill="#afb1b8" d="M32 6.078c-1.1.493-2.376.857-3.713 1.028l-.068.007a6.556 6.556 0 0 0 2.873-3.579l.013-.046a12.89 12.89 0 0 1-4.076 1.573l-.084.014A6.558 6.558 0 0 0 15.6 9.557v.004c0 .52.043 1.021.152 1.496-5.454-.266-10.28-2.88-13.522-6.861a6.524 6.524 0 0 0-.902 3.313v.001a6.57 6.57 0 0 0 2.914 5.451 6.453 6.453 0 0 1-2.994-.823l.033.017v.072a6.592 6.592 0 0 0 5.213 6.44l.043.008a6.403 6.403 0 0 1-1.662.215h-.061.003c-.419 0-.843-.024-1.242-.112.85 2.598 3.261 4.509 6.13 4.57a13.096 13.096 0 0 1-8.123 2.8H1.57h.001c-.538 0-1.053-.026-1.57-.091 2.827 1.846 6.287 2.944 10.004 2.944h.063-.003c12.072 0 18.672-10 18.672-18.669 0-.288-.01-.57-.024-.848a13.19 13.19 0 0 0 3.258-3.356l.03-.047z" style="fill:var(--color3, #afb1b8)"/>
        </symbol>
        <symbol id="icon-twitter-2" viewBox="0 0 32 32">
            <path fill="#fff" d="M32 6.078c-1.1.493-2.376.857-3.713 1.028l-.068.007a6.556 6.556 0 0 0 2.873-3.579l.013-.046a12.88 12.88 0 0 1-4.076 1.573l-.084.014A6.558 6.558 0 0 0 15.6 9.557v.004c0 .52.043 1.021.152 1.496-5.454-.266-10.28-2.88-13.522-6.861a6.524 6.524 0 0 0-.902 3.313v.001a6.57 6.57 0 0 0 2.914 5.451 6.453 6.453 0 0 1-2.994-.823l.033.017v.072a6.592 6.592 0 0 0 5.213 6.44l.043.008a6.403 6.403 0 0 1-1.662.215h-.061.003c-.419 0-.843-.024-1.242-.112.85 2.598 3.261 4.509 6.13 4.57a13.093 13.093 0 0 1-8.122 2.8H1.57h.001-.062c-.531 0-1.055-.034-1.569-.099l.061.006c2.826 1.846 6.287 2.944 10.004 2.944h.063-.003c12.072 0 18.672-10 18.672-18.669 0-.288-.01-.57-.024-.848a13.203 13.203 0 0 0 3.258-3.355l.03-.047z" style="fill:var(--color5, #fff)"/>
        </symbol>
    </defs>
</svg>